<mxfile host="app.diagrams.net" modified="2024-04-07T16:10:37.500Z" agent="Mozilla/5.0 (Windows NT 10.0; Win64; x64) AppleWebKit/537.36 (KHTML, like Gecko) Chrome/123.0.0.0 Safari/537.36" etag="TR4viCfppGUs2HwAHkWd" version="24.2.2" type="google">
  <diagram name="Page-1" id="VRnUsYqsVT0sJRM9db-Q">
    <mxGraphModel dx="3000" dy="1629" grid="1" gridSize="10" guides="1" tooltips="1" connect="1" arrows="1" fold="1" page="1" pageScale="1" pageWidth="850" pageHeight="1100" math="0" shadow="0">
      <root>
        <mxCell id="0" />
        <mxCell id="1" parent="0" />
        <mxCell id="17btKouk7AmF3oWmSYIW-1" value="ReceptionManagement" style="swimlane;fontStyle=1;align=center;verticalAlign=top;childLayout=stackLayout;horizontal=1;startSize=24.50666707356771;horizontalStack=0;resizeParent=1;resizeParentMax=0;resizeLast=0;collapsible=0;marginBottom=0;" vertex="1" parent="1">
          <mxGeometry x="2333" y="20" width="191" height="182.5066670735677" as="geometry" />
        </mxCell>
        <mxCell id="17btKouk7AmF3oWmSYIW-2" style="line;strokeWidth=1;fillColor=none;align=left;verticalAlign=middle;spacingTop=-1;spacingLeft=3;spacingRight=3;rotatable=0;labelPosition=right;points=[];portConstraint=eastwest;strokeColor=inherit;" vertex="1" parent="17btKouk7AmF3oWmSYIW-1">
          <mxGeometry y="24.50666707356771" width="191" height="8" as="geometry" />
        </mxCell>
        <mxCell id="17btKouk7AmF3oWmSYIW-3" value="+ patientEnquiry()" style="text;strokeColor=none;fillColor=none;align=left;verticalAlign=top;spacingLeft=4;spacingRight=4;overflow=hidden;rotatable=0;points=[[0,0.5],[1,0.5]];portConstraint=eastwest;" vertex="1" parent="17btKouk7AmF3oWmSYIW-1">
          <mxGeometry y="32.50666707356771" width="191" height="25" as="geometry" />
        </mxCell>
        <mxCell id="17btKouk7AmF3oWmSYIW-4" value="+ consultantsEnquiry()" style="text;strokeColor=none;fillColor=none;align=left;verticalAlign=top;spacingLeft=4;spacingRight=4;overflow=hidden;rotatable=0;points=[[0,0.5],[1,0.5]];portConstraint=eastwest;" vertex="1" parent="17btKouk7AmF3oWmSYIW-1">
          <mxGeometry y="57.50666707356771" width="191" height="25" as="geometry" />
        </mxCell>
        <mxCell id="17btKouk7AmF3oWmSYIW-5" value="+ scheduleAppointment()" style="text;strokeColor=none;fillColor=none;align=left;verticalAlign=top;spacingLeft=4;spacingRight=4;overflow=hidden;rotatable=0;points=[[0,0.5],[1,0.5]];portConstraint=eastwest;" vertex="1" parent="17btKouk7AmF3oWmSYIW-1">
          <mxGeometry y="82.50666707356771" width="191" height="25" as="geometry" />
        </mxCell>
        <mxCell id="17btKouk7AmF3oWmSYIW-6" value="+ addDoctor()" style="text;strokeColor=none;fillColor=none;align=left;verticalAlign=top;spacingLeft=4;spacingRight=4;overflow=hidden;rotatable=0;points=[[0,0.5],[1,0.5]];portConstraint=eastwest;" vertex="1" parent="17btKouk7AmF3oWmSYIW-1">
          <mxGeometry y="107.50666707356771" width="191" height="25" as="geometry" />
        </mxCell>
        <mxCell id="17btKouk7AmF3oWmSYIW-7" value="+ addNurse()" style="text;strokeColor=none;fillColor=none;align=left;verticalAlign=top;spacingLeft=4;spacingRight=4;overflow=hidden;rotatable=0;points=[[0,0.5],[1,0.5]];portConstraint=eastwest;" vertex="1" parent="17btKouk7AmF3oWmSYIW-1">
          <mxGeometry y="132.5066670735677" width="191" height="25" as="geometry" />
        </mxCell>
        <mxCell id="17btKouk7AmF3oWmSYIW-8" value="+ addReceptionist()" style="text;strokeColor=none;fillColor=none;align=left;verticalAlign=top;spacingLeft=4;spacingRight=4;overflow=hidden;rotatable=0;points=[[0,0.5],[1,0.5]];portConstraint=eastwest;" vertex="1" parent="17btKouk7AmF3oWmSYIW-1">
          <mxGeometry y="157.5066670735677" width="191" height="25" as="geometry" />
        </mxCell>
        <mxCell id="17btKouk7AmF3oWmSYIW-9" value="PatientRegistration" style="swimlane;fontStyle=1;align=center;verticalAlign=top;childLayout=stackLayout;horizontal=1;startSize=24.50666707356771;horizontalStack=0;resizeParent=1;resizeParentMax=0;resizeLast=0;collapsible=0;marginBottom=0;" vertex="1" parent="1">
          <mxGeometry x="772" y="329" width="246" height="182.5066670735677" as="geometry" />
        </mxCell>
        <mxCell id="17btKouk7AmF3oWmSYIW-10" style="line;strokeWidth=1;fillColor=none;align=left;verticalAlign=middle;spacingTop=-1;spacingLeft=3;spacingRight=3;rotatable=0;labelPosition=right;points=[];portConstraint=eastwest;strokeColor=inherit;" vertex="1" parent="17btKouk7AmF3oWmSYIW-9">
          <mxGeometry y="24.50666707356771" width="246" height="8" as="geometry" />
        </mxCell>
        <mxCell id="17btKouk7AmF3oWmSYIW-11" value="+ registerOPDPatient()" style="text;strokeColor=none;fillColor=none;align=left;verticalAlign=top;spacingLeft=4;spacingRight=4;overflow=hidden;rotatable=0;points=[[0,0.5],[1,0.5]];portConstraint=eastwest;" vertex="1" parent="17btKouk7AmF3oWmSYIW-9">
          <mxGeometry y="32.50666707356771" width="246" height="25" as="geometry" />
        </mxCell>
        <mxCell id="17btKouk7AmF3oWmSYIW-12" value="+ registerIndoorPatient()" style="text;strokeColor=none;fillColor=none;align=left;verticalAlign=top;spacingLeft=4;spacingRight=4;overflow=hidden;rotatable=0;points=[[0,0.5],[1,0.5]];portConstraint=eastwest;" vertex="1" parent="17btKouk7AmF3oWmSYIW-9">
          <mxGeometry y="57.50666707356771" width="246" height="25" as="geometry" />
        </mxCell>
        <mxCell id="17btKouk7AmF3oWmSYIW-13" value="+ generateOPDCard()" style="text;strokeColor=none;fillColor=none;align=left;verticalAlign=top;spacingLeft=4;spacingRight=4;overflow=hidden;rotatable=0;points=[[0,0.5],[1,0.5]];portConstraint=eastwest;" vertex="1" parent="17btKouk7AmF3oWmSYIW-9">
          <mxGeometry y="82.50666707356771" width="246" height="25" as="geometry" />
        </mxCell>
        <mxCell id="17btKouk7AmF3oWmSYIW-14" value="+ generateAdmissionForm()" style="text;strokeColor=none;fillColor=none;align=left;verticalAlign=top;spacingLeft=4;spacingRight=4;overflow=hidden;rotatable=0;points=[[0,0.5],[1,0.5]];portConstraint=eastwest;" vertex="1" parent="17btKouk7AmF3oWmSYIW-9">
          <mxGeometry y="107.50666707356771" width="246" height="25" as="geometry" />
        </mxCell>
        <mxCell id="17btKouk7AmF3oWmSYIW-15" value="+ generateInPatientDailyReport()" style="text;strokeColor=none;fillColor=none;align=left;verticalAlign=top;spacingLeft=4;spacingRight=4;overflow=hidden;rotatable=0;points=[[0,0.5],[1,0.5]];portConstraint=eastwest;" vertex="1" parent="17btKouk7AmF3oWmSYIW-9">
          <mxGeometry y="132.5066670735677" width="246" height="25" as="geometry" />
        </mxCell>
        <mxCell id="17btKouk7AmF3oWmSYIW-16" value="+ registerPatient()" style="text;strokeColor=none;fillColor=none;align=left;verticalAlign=top;spacingLeft=4;spacingRight=4;overflow=hidden;rotatable=0;points=[[0,0.5],[1,0.5]];portConstraint=eastwest;" vertex="1" parent="17btKouk7AmF3oWmSYIW-9">
          <mxGeometry y="157.5066670735677" width="246" height="25" as="geometry" />
        </mxCell>
        <mxCell id="17btKouk7AmF3oWmSYIW-17" value="OutPatientManagement" style="swimlane;fontStyle=1;align=center;verticalAlign=top;childLayout=stackLayout;horizontal=1;startSize=25.272727272727273;horizontalStack=0;resizeParent=1;resizeParentMax=0;resizeLast=0;collapsible=0;marginBottom=0;" vertex="1" parent="1">
          <mxGeometry x="943" y="683" width="221" height="133.27272727272728" as="geometry" />
        </mxCell>
        <mxCell id="17btKouk7AmF3oWmSYIW-18" style="line;strokeWidth=1;fillColor=none;align=left;verticalAlign=middle;spacingTop=-1;spacingLeft=3;spacingRight=3;rotatable=0;labelPosition=right;points=[];portConstraint=eastwest;strokeColor=inherit;" vertex="1" parent="17btKouk7AmF3oWmSYIW-17">
          <mxGeometry y="25.272727272727273" width="221" height="8" as="geometry" />
        </mxCell>
        <mxCell id="17btKouk7AmF3oWmSYIW-19" value="+ recordConsultationDetails()" style="text;strokeColor=none;fillColor=none;align=left;verticalAlign=top;spacingLeft=4;spacingRight=4;overflow=hidden;rotatable=0;points=[[0,0.5],[1,0.5]];portConstraint=eastwest;" vertex="1" parent="17btKouk7AmF3oWmSYIW-17">
          <mxGeometry y="33.27272727272727" width="221" height="25" as="geometry" />
        </mxCell>
        <mxCell id="17btKouk7AmF3oWmSYIW-20" value="+ recordPrescription()" style="text;strokeColor=none;fillColor=none;align=left;verticalAlign=top;spacingLeft=4;spacingRight=4;overflow=hidden;rotatable=0;points=[[0,0.5],[1,0.5]];portConstraint=eastwest;" vertex="1" parent="17btKouk7AmF3oWmSYIW-17">
          <mxGeometry y="58.27272727272727" width="221" height="25" as="geometry" />
        </mxCell>
        <mxCell id="17btKouk7AmF3oWmSYIW-21" value="+ recordNextVisit()" style="text;strokeColor=none;fillColor=none;align=left;verticalAlign=top;spacingLeft=4;spacingRight=4;overflow=hidden;rotatable=0;points=[[0,0.5],[1,0.5]];portConstraint=eastwest;" vertex="1" parent="17btKouk7AmF3oWmSYIW-17">
          <mxGeometry y="83.27272727272728" width="221" height="25" as="geometry" />
        </mxCell>
        <mxCell id="17btKouk7AmF3oWmSYIW-22" value="+ scanPrescription()" style="text;strokeColor=none;fillColor=none;align=left;verticalAlign=top;spacingLeft=4;spacingRight=4;overflow=hidden;rotatable=0;points=[[0,0.5],[1,0.5]];portConstraint=eastwest;" vertex="1" parent="17btKouk7AmF3oWmSYIW-17">
          <mxGeometry y="108.27272727272728" width="221" height="25" as="geometry" />
        </mxCell>
        <mxCell id="17btKouk7AmF3oWmSYIW-23" value="OPDBilling" style="swimlane;fontStyle=1;align=center;verticalAlign=top;childLayout=stackLayout;horizontal=1;startSize=24.06315853721217;horizontalStack=0;resizeParent=1;resizeParentMax=0;resizeLast=0;collapsible=0;marginBottom=0;" vertex="1" parent="1">
          <mxGeometry x="1264" y="925" width="284" height="224.0631585372122" as="geometry" />
        </mxCell>
        <mxCell id="17btKouk7AmF3oWmSYIW-24" style="line;strokeWidth=1;fillColor=none;align=left;verticalAlign=middle;spacingTop=-1;spacingLeft=3;spacingRight=3;rotatable=0;labelPosition=right;points=[];portConstraint=eastwest;strokeColor=inherit;" vertex="1" parent="17btKouk7AmF3oWmSYIW-23">
          <mxGeometry y="24.06315853721217" width="284" height="8" as="geometry" />
        </mxCell>
        <mxCell id="17btKouk7AmF3oWmSYIW-25" value="+ recordCharges()" style="text;strokeColor=none;fillColor=none;align=left;verticalAlign=top;spacingLeft=4;spacingRight=4;overflow=hidden;rotatable=0;points=[[0,0.5],[1,0.5]];portConstraint=eastwest;" vertex="1" parent="17btKouk7AmF3oWmSYIW-23">
          <mxGeometry y="32.063158537212175" width="284" height="24" as="geometry" />
        </mxCell>
        <mxCell id="17btKouk7AmF3oWmSYIW-26" value="+ recordConcessionDetails()" style="text;strokeColor=none;fillColor=none;align=left;verticalAlign=top;spacingLeft=4;spacingRight=4;overflow=hidden;rotatable=0;points=[[0,0.5],[1,0.5]];portConstraint=eastwest;" vertex="1" parent="17btKouk7AmF3oWmSYIW-23">
          <mxGeometry y="56.063158537212175" width="284" height="24" as="geometry" />
        </mxCell>
        <mxCell id="17btKouk7AmF3oWmSYIW-27" value="+ recordConsultantCharges()" style="text;strokeColor=none;fillColor=none;align=left;verticalAlign=top;spacingLeft=4;spacingRight=4;overflow=hidden;rotatable=0;points=[[0,0.5],[1,0.5]];portConstraint=eastwest;" vertex="1" parent="17btKouk7AmF3oWmSYIW-23">
          <mxGeometry y="80.06315853721217" width="284" height="24" as="geometry" />
        </mxCell>
        <mxCell id="17btKouk7AmF3oWmSYIW-28" value="+ recordServiceCharges()" style="text;strokeColor=none;fillColor=none;align=left;verticalAlign=top;spacingLeft=4;spacingRight=4;overflow=hidden;rotatable=0;points=[[0,0.5],[1,0.5]];portConstraint=eastwest;" vertex="1" parent="17btKouk7AmF3oWmSYIW-23">
          <mxGeometry y="104.06315853721217" width="284" height="24" as="geometry" />
        </mxCell>
        <mxCell id="17btKouk7AmF3oWmSYIW-29" value="+ recordPatientCategory()" style="text;strokeColor=none;fillColor=none;align=left;verticalAlign=top;spacingLeft=4;spacingRight=4;overflow=hidden;rotatable=0;points=[[0,0.5],[1,0.5]];portConstraint=eastwest;" vertex="1" parent="17btKouk7AmF3oWmSYIW-23">
          <mxGeometry y="128.0631585372122" width="284" height="24" as="geometry" />
        </mxCell>
        <mxCell id="17btKouk7AmF3oWmSYIW-30" value="+ recordServiceTime()" style="text;strokeColor=none;fillColor=none;align=left;verticalAlign=top;spacingLeft=4;spacingRight=4;overflow=hidden;rotatable=0;points=[[0,0.5],[1,0.5]];portConstraint=eastwest;" vertex="1" parent="17btKouk7AmF3oWmSYIW-23">
          <mxGeometry y="152.0631585372122" width="284" height="24" as="geometry" />
        </mxCell>
        <mxCell id="17btKouk7AmF3oWmSYIW-31" value="+ recordPatientRevisit()" style="text;strokeColor=none;fillColor=none;align=left;verticalAlign=top;spacingLeft=4;spacingRight=4;overflow=hidden;rotatable=0;points=[[0,0.5],[1,0.5]];portConstraint=eastwest;" vertex="1" parent="17btKouk7AmF3oWmSYIW-23">
          <mxGeometry y="176.0631585372122" width="284" height="24" as="geometry" />
        </mxCell>
        <mxCell id="17btKouk7AmF3oWmSYIW-32" value="+ transferInformationToInvestigation()" style="text;strokeColor=none;fillColor=none;align=left;verticalAlign=top;spacingLeft=4;spacingRight=4;overflow=hidden;rotatable=0;points=[[0,0.5],[1,0.5]];portConstraint=eastwest;" vertex="1" parent="17btKouk7AmF3oWmSYIW-23">
          <mxGeometry y="200.0631585372122" width="284" height="24" as="geometry" />
        </mxCell>
        <mxCell id="17btKouk7AmF3oWmSYIW-33" value="InvestigationsReporting" style="swimlane;fontStyle=1;align=center;verticalAlign=top;childLayout=stackLayout;horizontal=1;startSize=24.50666707356771;horizontalStack=0;resizeParent=1;resizeParentMax=0;resizeLast=0;collapsible=0;marginBottom=0;" vertex="1" parent="1">
          <mxGeometry x="1541" y="1222" width="291" height="182.5066670735677" as="geometry" />
        </mxCell>
        <mxCell id="17btKouk7AmF3oWmSYIW-34" style="line;strokeWidth=1;fillColor=none;align=left;verticalAlign=middle;spacingTop=-1;spacingLeft=3;spacingRight=3;rotatable=0;labelPosition=right;points=[];portConstraint=eastwest;strokeColor=inherit;" vertex="1" parent="17btKouk7AmF3oWmSYIW-33">
          <mxGeometry y="24.50666707356771" width="291" height="8" as="geometry" />
        </mxCell>
        <mxCell id="17btKouk7AmF3oWmSYIW-35" value="+ generateInvestigationRequisition()" style="text;strokeColor=none;fillColor=none;align=left;verticalAlign=top;spacingLeft=4;spacingRight=4;overflow=hidden;rotatable=0;points=[[0,0.5],[1,0.5]];portConstraint=eastwest;" vertex="1" parent="17btKouk7AmF3oWmSYIW-33">
          <mxGeometry y="32.50666707356771" width="291" height="25" as="geometry" />
        </mxCell>
        <mxCell id="17btKouk7AmF3oWmSYIW-36" value="+ enterTestResults()" style="text;strokeColor=none;fillColor=none;align=left;verticalAlign=top;spacingLeft=4;spacingRight=4;overflow=hidden;rotatable=0;points=[[0,0.5],[1,0.5]];portConstraint=eastwest;" vertex="1" parent="17btKouk7AmF3oWmSYIW-33">
          <mxGeometry y="57.50666707356771" width="291" height="25" as="geometry" />
        </mxCell>
        <mxCell id="17btKouk7AmF3oWmSYIW-37" value="+ generateSmartReport()" style="text;strokeColor=none;fillColor=none;align=left;verticalAlign=top;spacingLeft=4;spacingRight=4;overflow=hidden;rotatable=0;points=[[0,0.5],[1,0.5]];portConstraint=eastwest;" vertex="1" parent="17btKouk7AmF3oWmSYIW-33">
          <mxGeometry y="82.50666707356771" width="291" height="25" as="geometry" />
        </mxCell>
        <mxCell id="17btKouk7AmF3oWmSYIW-38" value="+ validateReports()" style="text;strokeColor=none;fillColor=none;align=left;verticalAlign=top;spacingLeft=4;spacingRight=4;overflow=hidden;rotatable=0;points=[[0,0.5],[1,0.5]];portConstraint=eastwest;" vertex="1" parent="17btKouk7AmF3oWmSYIW-33">
          <mxGeometry y="107.50666707356771" width="291" height="25" as="geometry" />
        </mxCell>
        <mxCell id="17btKouk7AmF3oWmSYIW-39" value="+ integrateWithDiagnosticEquipments()" style="text;strokeColor=none;fillColor=none;align=left;verticalAlign=top;spacingLeft=4;spacingRight=4;overflow=hidden;rotatable=0;points=[[0,0.5],[1,0.5]];portConstraint=eastwest;" vertex="1" parent="17btKouk7AmF3oWmSYIW-33">
          <mxGeometry y="132.5066670735677" width="291" height="25" as="geometry" />
        </mxCell>
        <mxCell id="17btKouk7AmF3oWmSYIW-40" value="+ performComparativeAnalysis()" style="text;strokeColor=none;fillColor=none;align=left;verticalAlign=top;spacingLeft=4;spacingRight=4;overflow=hidden;rotatable=0;points=[[0,0.5],[1,0.5]];portConstraint=eastwest;" vertex="1" parent="17btKouk7AmF3oWmSYIW-33">
          <mxGeometry y="157.5066670735677" width="291" height="25" as="geometry" />
        </mxCell>
        <mxCell id="17btKouk7AmF3oWmSYIW-41" value="PatientManagement" style="swimlane;fontStyle=1;align=center;verticalAlign=top;childLayout=stackLayout;horizontal=1;startSize=24.258823170381433;horizontalStack=0;resizeParent=1;resizeParentMax=0;resizeLast=0;collapsible=0;marginBottom=0;" vertex="1" parent="1">
          <mxGeometry x="1597" y="936" width="210" height="200.25882317038145" as="geometry" />
        </mxCell>
        <mxCell id="17btKouk7AmF3oWmSYIW-42" style="line;strokeWidth=1;fillColor=none;align=left;verticalAlign=middle;spacingTop=-1;spacingLeft=3;spacingRight=3;rotatable=0;labelPosition=right;points=[];portConstraint=eastwest;strokeColor=inherit;" vertex="1" parent="17btKouk7AmF3oWmSYIW-41">
          <mxGeometry y="24.258823170381433" width="210" height="8" as="geometry" />
        </mxCell>
        <mxCell id="17btKouk7AmF3oWmSYIW-43" value="+ allocateBed()" style="text;strokeColor=none;fillColor=none;align=left;verticalAlign=top;spacingLeft=4;spacingRight=4;overflow=hidden;rotatable=0;points=[[0,0.5],[1,0.5]];portConstraint=eastwest;" vertex="1" parent="17btKouk7AmF3oWmSYIW-41">
          <mxGeometry y="32.25882317038143" width="210" height="24" as="geometry" />
        </mxCell>
        <mxCell id="17btKouk7AmF3oWmSYIW-44" value="+ transferBed()" style="text;strokeColor=none;fillColor=none;align=left;verticalAlign=top;spacingLeft=4;spacingRight=4;overflow=hidden;rotatable=0;points=[[0,0.5],[1,0.5]];portConstraint=eastwest;" vertex="1" parent="17btKouk7AmF3oWmSYIW-41">
          <mxGeometry y="56.25882317038143" width="210" height="24" as="geometry" />
        </mxCell>
        <mxCell id="17btKouk7AmF3oWmSYIW-45" value="+ recordConsultantVisit()" style="text;strokeColor=none;fillColor=none;align=left;verticalAlign=top;spacingLeft=4;spacingRight=4;overflow=hidden;rotatable=0;points=[[0,0.5],[1,0.5]];portConstraint=eastwest;" vertex="1" parent="17btKouk7AmF3oWmSYIW-41">
          <mxGeometry y="80.25882317038143" width="210" height="24" as="geometry" />
        </mxCell>
        <mxCell id="17btKouk7AmF3oWmSYIW-46" value="+ recordClinicalData()" style="text;strokeColor=none;fillColor=none;align=left;verticalAlign=top;spacingLeft=4;spacingRight=4;overflow=hidden;rotatable=0;points=[[0,0.5],[1,0.5]];portConstraint=eastwest;" vertex="1" parent="17btKouk7AmF3oWmSYIW-41">
          <mxGeometry y="104.25882317038143" width="210" height="24" as="geometry" />
        </mxCell>
        <mxCell id="17btKouk7AmF3oWmSYIW-47" value="+ requisitionInvestigations()" style="text;strokeColor=none;fillColor=none;align=left;verticalAlign=top;spacingLeft=4;spacingRight=4;overflow=hidden;rotatable=0;points=[[0,0.5],[1,0.5]];portConstraint=eastwest;" vertex="1" parent="17btKouk7AmF3oWmSYIW-41">
          <mxGeometry y="128.25882317038145" width="210" height="24" as="geometry" />
        </mxCell>
        <mxCell id="17btKouk7AmF3oWmSYIW-48" value="+ requisitionMedicines()" style="text;strokeColor=none;fillColor=none;align=left;verticalAlign=top;spacingLeft=4;spacingRight=4;overflow=hidden;rotatable=0;points=[[0,0.5],[1,0.5]];portConstraint=eastwest;" vertex="1" parent="17btKouk7AmF3oWmSYIW-41">
          <mxGeometry y="152.25882317038145" width="210" height="24" as="geometry" />
        </mxCell>
        <mxCell id="17btKouk7AmF3oWmSYIW-49" value="+ manageOTBilling()" style="text;strokeColor=none;fillColor=none;align=left;verticalAlign=top;spacingLeft=4;spacingRight=4;overflow=hidden;rotatable=0;points=[[0,0.5],[1,0.5]];portConstraint=eastwest;" vertex="1" parent="17btKouk7AmF3oWmSYIW-41">
          <mxGeometry y="176.25882317038145" width="210" height="24" as="geometry" />
        </mxCell>
        <mxCell id="17btKouk7AmF3oWmSYIW-50" value="IndoorBilling" style="swimlane;fontStyle=1;align=center;verticalAlign=top;childLayout=stackLayout;horizontal=1;startSize=24.258823170381433;horizontalStack=0;resizeParent=1;resizeParentMax=0;resizeLast=0;collapsible=0;marginBottom=0;" vertex="1" parent="1">
          <mxGeometry x="1898" y="1211" width="271" height="200.25882317038145" as="geometry" />
        </mxCell>
        <mxCell id="17btKouk7AmF3oWmSYIW-51" style="line;strokeWidth=1;fillColor=none;align=left;verticalAlign=middle;spacingTop=-1;spacingLeft=3;spacingRight=3;rotatable=0;labelPosition=right;points=[];portConstraint=eastwest;strokeColor=inherit;" vertex="1" parent="17btKouk7AmF3oWmSYIW-50">
          <mxGeometry y="24.258823170381433" width="271" height="8" as="geometry" />
        </mxCell>
        <mxCell id="17btKouk7AmF3oWmSYIW-52" value="+ collectPayment()" style="text;strokeColor=none;fillColor=none;align=left;verticalAlign=top;spacingLeft=4;spacingRight=4;overflow=hidden;rotatable=0;points=[[0,0.5],[1,0.5]];portConstraint=eastwest;" vertex="1" parent="17btKouk7AmF3oWmSYIW-50">
          <mxGeometry y="32.25882317038143" width="271" height="24" as="geometry" />
        </mxCell>
        <mxCell id="17btKouk7AmF3oWmSYIW-53" value="+ generateReceipt()" style="text;strokeColor=none;fillColor=none;align=left;verticalAlign=top;spacingLeft=4;spacingRight=4;overflow=hidden;rotatable=0;points=[[0,0.5],[1,0.5]];portConstraint=eastwest;" vertex="1" parent="17btKouk7AmF3oWmSYIW-50">
          <mxGeometry y="56.25882317038143" width="271" height="24" as="geometry" />
        </mxCell>
        <mxCell id="17btKouk7AmF3oWmSYIW-54" value="+ generateBill()" style="text;strokeColor=none;fillColor=none;align=left;verticalAlign=top;spacingLeft=4;spacingRight=4;overflow=hidden;rotatable=0;points=[[0,0.5],[1,0.5]];portConstraint=eastwest;" vertex="1" parent="17btKouk7AmF3oWmSYIW-50">
          <mxGeometry y="80.25882317038143" width="271" height="24" as="geometry" />
        </mxCell>
        <mxCell id="17btKouk7AmF3oWmSYIW-55" value="+ scrutinizeDepositExhaustList()" style="text;strokeColor=none;fillColor=none;align=left;verticalAlign=top;spacingLeft=4;spacingRight=4;overflow=hidden;rotatable=0;points=[[0,0.5],[1,0.5]];portConstraint=eastwest;" vertex="1" parent="17btKouk7AmF3oWmSYIW-50">
          <mxGeometry y="104.25882317038143" width="271" height="24" as="geometry" />
        </mxCell>
        <mxCell id="17btKouk7AmF3oWmSYIW-56" value="+ scrutinizeCreditLimit()" style="text;strokeColor=none;fillColor=none;align=left;verticalAlign=top;spacingLeft=4;spacingRight=4;overflow=hidden;rotatable=0;points=[[0,0.5],[1,0.5]];portConstraint=eastwest;" vertex="1" parent="17btKouk7AmF3oWmSYIW-50">
          <mxGeometry y="128.25882317038145" width="271" height="24" as="geometry" />
        </mxCell>
        <mxCell id="17btKouk7AmF3oWmSYIW-57" value="+ billAgainstAnotherAccount()" style="text;strokeColor=none;fillColor=none;align=left;verticalAlign=top;spacingLeft=4;spacingRight=4;overflow=hidden;rotatable=0;points=[[0,0.5],[1,0.5]];portConstraint=eastwest;" vertex="1" parent="17btKouk7AmF3oWmSYIW-50">
          <mxGeometry y="152.25882317038145" width="271" height="24" as="geometry" />
        </mxCell>
        <mxCell id="17btKouk7AmF3oWmSYIW-58" value="+ additionalPaymentForAmbulance()" style="text;strokeColor=none;fillColor=none;align=left;verticalAlign=top;spacingLeft=4;spacingRight=4;overflow=hidden;rotatable=0;points=[[0,0.5],[1,0.5]];portConstraint=eastwest;" vertex="1" parent="17btKouk7AmF3oWmSYIW-50">
          <mxGeometry y="176.25882317038145" width="271" height="24" as="geometry" />
        </mxCell>
        <mxCell id="17btKouk7AmF3oWmSYIW-59" value="CentralStore" style="swimlane;fontStyle=1;align=center;verticalAlign=top;childLayout=stackLayout;horizontal=1;startSize=24.50666707356771;horizontalStack=0;resizeParent=1;resizeParentMax=0;resizeLast=0;collapsible=0;marginBottom=0;" vertex="1" parent="1">
          <mxGeometry x="2060" y="1475" width="204" height="182.5066670735677" as="geometry" />
        </mxCell>
        <mxCell id="17btKouk7AmF3oWmSYIW-60" style="line;strokeWidth=1;fillColor=none;align=left;verticalAlign=middle;spacingTop=-1;spacingLeft=3;spacingRight=3;rotatable=0;labelPosition=right;points=[];portConstraint=eastwest;strokeColor=inherit;" vertex="1" parent="17btKouk7AmF3oWmSYIW-59">
          <mxGeometry y="24.50666707356771" width="204" height="8" as="geometry" />
        </mxCell>
        <mxCell id="17btKouk7AmF3oWmSYIW-61" value="+ maintainItemDetails()" style="text;strokeColor=none;fillColor=none;align=left;verticalAlign=top;spacingLeft=4;spacingRight=4;overflow=hidden;rotatable=0;points=[[0,0.5],[1,0.5]];portConstraint=eastwest;" vertex="1" parent="17btKouk7AmF3oWmSYIW-59">
          <mxGeometry y="32.50666707356771" width="204" height="25" as="geometry" />
        </mxCell>
        <mxCell id="17btKouk7AmF3oWmSYIW-62" value="+ maintainVendorDetails()" style="text;strokeColor=none;fillColor=none;align=left;verticalAlign=top;spacingLeft=4;spacingRight=4;overflow=hidden;rotatable=0;points=[[0,0.5],[1,0.5]];portConstraint=eastwest;" vertex="1" parent="17btKouk7AmF3oWmSYIW-59">
          <mxGeometry y="57.50666707356771" width="204" height="25" as="geometry" />
        </mxCell>
        <mxCell id="17btKouk7AmF3oWmSYIW-63" value="+ generatePurchaseOrder()" style="text;strokeColor=none;fillColor=none;align=left;verticalAlign=top;spacingLeft=4;spacingRight=4;overflow=hidden;rotatable=0;points=[[0,0.5],[1,0.5]];portConstraint=eastwest;" vertex="1" parent="17btKouk7AmF3oWmSYIW-59">
          <mxGeometry y="82.50666707356771" width="204" height="25" as="geometry" />
        </mxCell>
        <mxCell id="17btKouk7AmF3oWmSYIW-64" value="+ maintainStock()" style="text;strokeColor=none;fillColor=none;align=left;verticalAlign=top;spacingLeft=4;spacingRight=4;overflow=hidden;rotatable=0;points=[[0,0.5],[1,0.5]];portConstraint=eastwest;" vertex="1" parent="17btKouk7AmF3oWmSYIW-59">
          <mxGeometry y="107.50666707356771" width="204" height="25" as="geometry" />
        </mxCell>
        <mxCell id="17btKouk7AmF3oWmSYIW-65" value="+ acknowledgeReturn()" style="text;strokeColor=none;fillColor=none;align=left;verticalAlign=top;spacingLeft=4;spacingRight=4;overflow=hidden;rotatable=0;points=[[0,0.5],[1,0.5]];portConstraint=eastwest;" vertex="1" parent="17btKouk7AmF3oWmSYIW-59">
          <mxGeometry y="132.5066670735677" width="204" height="25" as="geometry" />
        </mxCell>
        <mxCell id="17btKouk7AmF3oWmSYIW-66" value="+ generateReports()" style="text;strokeColor=none;fillColor=none;align=left;verticalAlign=top;spacingLeft=4;spacingRight=4;overflow=hidden;rotatable=0;points=[[0,0.5],[1,0.5]];portConstraint=eastwest;" vertex="1" parent="17btKouk7AmF3oWmSYIW-59">
          <mxGeometry y="157.5066670735677" width="204" height="25" as="geometry" />
        </mxCell>
        <mxCell id="17btKouk7AmF3oWmSYIW-67" value="Doctor" style="swimlane;fontStyle=1;align=center;verticalAlign=top;childLayout=stackLayout;horizontal=1;startSize=26.91428484235491;horizontalStack=0;resizeParent=1;resizeParentMax=0;resizeLast=0;collapsible=0;marginBottom=0;" vertex="1" parent="1">
          <mxGeometry x="31" y="705" width="156" height="88.9142848423549" as="geometry" />
        </mxCell>
        <mxCell id="17btKouk7AmF3oWmSYIW-68" style="line;strokeWidth=1;fillColor=none;align=left;verticalAlign=middle;spacingTop=-1;spacingLeft=3;spacingRight=3;rotatable=0;labelPosition=right;points=[];portConstraint=eastwest;strokeColor=inherit;" vertex="1" parent="17btKouk7AmF3oWmSYIW-67">
          <mxGeometry y="26.91428484235491" width="156" height="8" as="geometry" />
        </mxCell>
        <mxCell id="17btKouk7AmF3oWmSYIW-69" value="+ checkAvailability()" style="text;strokeColor=none;fillColor=none;align=left;verticalAlign=top;spacingLeft=4;spacingRight=4;overflow=hidden;rotatable=0;points=[[0,0.5],[1,0.5]];portConstraint=eastwest;" vertex="1" parent="17btKouk7AmF3oWmSYIW-67">
          <mxGeometry y="34.91428484235491" width="156" height="27" as="geometry" />
        </mxCell>
        <mxCell id="17btKouk7AmF3oWmSYIW-70" value="+ getDoctorDetails()" style="text;strokeColor=none;fillColor=none;align=left;verticalAlign=top;spacingLeft=4;spacingRight=4;overflow=hidden;rotatable=0;points=[[0,0.5],[1,0.5]];portConstraint=eastwest;" vertex="1" parent="17btKouk7AmF3oWmSYIW-67">
          <mxGeometry y="61.91428484235491" width="156" height="27" as="geometry" />
        </mxCell>
        <mxCell id="17btKouk7AmF3oWmSYIW-71" value="Appointment" style="swimlane;fontStyle=1;align=center;verticalAlign=top;childLayout=stackLayout;horizontal=1;startSize=25.774999618530273;horizontalStack=0;resizeParent=1;resizeParentMax=0;resizeLast=0;collapsible=0;marginBottom=0;" vertex="1" parent="1">
          <mxGeometry x="236" y="318" width="214" height="215.77499961853027" as="geometry" />
        </mxCell>
        <mxCell id="17btKouk7AmF3oWmSYIW-72" value="+ appointmentId: int" style="text;strokeColor=none;fillColor=none;align=left;verticalAlign=top;spacingLeft=4;spacingRight=4;overflow=hidden;rotatable=0;points=[[0,0.5],[1,0.5]];portConstraint=eastwest;" vertex="1" parent="17btKouk7AmF3oWmSYIW-71">
          <mxGeometry y="25.774999618530273" width="214" height="26" as="geometry" />
        </mxCell>
        <mxCell id="17btKouk7AmF3oWmSYIW-73" value="+ dateTime: date" style="text;strokeColor=none;fillColor=none;align=left;verticalAlign=top;spacingLeft=4;spacingRight=4;overflow=hidden;rotatable=0;points=[[0,0.5],[1,0.5]];portConstraint=eastwest;" vertex="1" parent="17btKouk7AmF3oWmSYIW-71">
          <mxGeometry y="51.77499961853027" width="214" height="26" as="geometry" />
        </mxCell>
        <mxCell id="17btKouk7AmF3oWmSYIW-74" value="+ patient: Patient" style="text;strokeColor=none;fillColor=none;align=left;verticalAlign=top;spacingLeft=4;spacingRight=4;overflow=hidden;rotatable=0;points=[[0,0.5],[1,0.5]];portConstraint=eastwest;" vertex="1" parent="17btKouk7AmF3oWmSYIW-71">
          <mxGeometry y="77.77499961853027" width="214" height="26" as="geometry" />
        </mxCell>
        <mxCell id="17btKouk7AmF3oWmSYIW-75" value="+ doctor: Doctor" style="text;strokeColor=none;fillColor=none;align=left;verticalAlign=top;spacingLeft=4;spacingRight=4;overflow=hidden;rotatable=0;points=[[0,0.5],[1,0.5]];portConstraint=eastwest;" vertex="1" parent="17btKouk7AmF3oWmSYIW-71">
          <mxGeometry y="103.77499961853027" width="214" height="26" as="geometry" />
        </mxCell>
        <mxCell id="17btKouk7AmF3oWmSYIW-76" value="+ receptionist: Receptionist" style="text;strokeColor=none;fillColor=none;align=left;verticalAlign=top;spacingLeft=4;spacingRight=4;overflow=hidden;rotatable=0;points=[[0,0.5],[1,0.5]];portConstraint=eastwest;" vertex="1" parent="17btKouk7AmF3oWmSYIW-71">
          <mxGeometry y="129.77499961853027" width="214" height="26" as="geometry" />
        </mxCell>
        <mxCell id="17btKouk7AmF3oWmSYIW-77" style="line;strokeWidth=1;fillColor=none;align=left;verticalAlign=middle;spacingTop=-1;spacingLeft=3;spacingRight=3;rotatable=0;labelPosition=right;points=[];portConstraint=eastwest;strokeColor=inherit;" vertex="1" parent="17btKouk7AmF3oWmSYIW-71">
          <mxGeometry y="155.77499961853027" width="214" height="8" as="geometry" />
        </mxCell>
        <mxCell id="17btKouk7AmF3oWmSYIW-78" value="+ bookAppointment()" style="text;strokeColor=none;fillColor=none;align=left;verticalAlign=top;spacingLeft=4;spacingRight=4;overflow=hidden;rotatable=0;points=[[0,0.5],[1,0.5]];portConstraint=eastwest;" vertex="1" parent="17btKouk7AmF3oWmSYIW-71">
          <mxGeometry y="163.77499961853027" width="214" height="26" as="geometry" />
        </mxCell>
        <mxCell id="17btKouk7AmF3oWmSYIW-79" value="+ cancelAppointment()" style="text;strokeColor=none;fillColor=none;align=left;verticalAlign=top;spacingLeft=4;spacingRight=4;overflow=hidden;rotatable=0;points=[[0,0.5],[1,0.5]];portConstraint=eastwest;" vertex="1" parent="17btKouk7AmF3oWmSYIW-71">
          <mxGeometry y="189.77499961853027" width="214" height="26" as="geometry" />
        </mxCell>
        <mxCell id="17btKouk7AmF3oWmSYIW-80" value="Nurse" style="swimlane;fontStyle=1;align=center;verticalAlign=top;childLayout=stackLayout;horizontal=1;startSize=26.91428484235491;horizontalStack=0;resizeParent=1;resizeParentMax=0;resizeLast=0;collapsible=0;marginBottom=0;" vertex="1" parent="1">
          <mxGeometry x="462" y="705" width="164" height="88.9142848423549" as="geometry" />
        </mxCell>
        <mxCell id="17btKouk7AmF3oWmSYIW-81" style="line;strokeWidth=1;fillColor=none;align=left;verticalAlign=middle;spacingTop=-1;spacingLeft=3;spacingRight=3;rotatable=0;labelPosition=right;points=[];portConstraint=eastwest;strokeColor=inherit;" vertex="1" parent="17btKouk7AmF3oWmSYIW-80">
          <mxGeometry y="26.91428484235491" width="164" height="8" as="geometry" />
        </mxCell>
        <mxCell id="17btKouk7AmF3oWmSYIW-82" value="+ updatePatientInfo()" style="text;strokeColor=none;fillColor=none;align=left;verticalAlign=top;spacingLeft=4;spacingRight=4;overflow=hidden;rotatable=0;points=[[0,0.5],[1,0.5]];portConstraint=eastwest;" vertex="1" parent="17btKouk7AmF3oWmSYIW-80">
          <mxGeometry y="34.91428484235491" width="164" height="27" as="geometry" />
        </mxCell>
        <mxCell id="17btKouk7AmF3oWmSYIW-83" value="+ monitorPatient()" style="text;strokeColor=none;fillColor=none;align=left;verticalAlign=top;spacingLeft=4;spacingRight=4;overflow=hidden;rotatable=0;points=[[0,0.5],[1,0.5]];portConstraint=eastwest;" vertex="1" parent="17btKouk7AmF3oWmSYIW-80">
          <mxGeometry y="61.91428484235491" width="164" height="27" as="geometry" />
        </mxCell>
        <mxCell id="17btKouk7AmF3oWmSYIW-84" value="Receptionist" style="swimlane;fontStyle=1;align=center;verticalAlign=top;childLayout=stackLayout;horizontal=1;startSize=26.91428484235491;horizontalStack=0;resizeParent=1;resizeParentMax=0;resizeLast=0;collapsible=0;marginBottom=0;" vertex="1" parent="1">
          <mxGeometry x="702" y="705" width="191" height="88.9142848423549" as="geometry" />
        </mxCell>
        <mxCell id="17btKouk7AmF3oWmSYIW-85" style="line;strokeWidth=1;fillColor=none;align=left;verticalAlign=middle;spacingTop=-1;spacingLeft=3;spacingRight=3;rotatable=0;labelPosition=right;points=[];portConstraint=eastwest;strokeColor=inherit;" vertex="1" parent="17btKouk7AmF3oWmSYIW-84">
          <mxGeometry y="26.91428484235491" width="191" height="8" as="geometry" />
        </mxCell>
        <mxCell id="17btKouk7AmF3oWmSYIW-86" value="+ registerPatient()" style="text;strokeColor=none;fillColor=none;align=left;verticalAlign=top;spacingLeft=4;spacingRight=4;overflow=hidden;rotatable=0;points=[[0,0.5],[1,0.5]];portConstraint=eastwest;" vertex="1" parent="17btKouk7AmF3oWmSYIW-84">
          <mxGeometry y="34.91428484235491" width="191" height="27" as="geometry" />
        </mxCell>
        <mxCell id="17btKouk7AmF3oWmSYIW-87" value="+ scheduleAppointment()" style="text;strokeColor=none;fillColor=none;align=left;verticalAlign=top;spacingLeft=4;spacingRight=4;overflow=hidden;rotatable=0;points=[[0,0.5],[1,0.5]];portConstraint=eastwest;" vertex="1" parent="17btKouk7AmF3oWmSYIW-84">
          <mxGeometry y="61.91428484235491" width="191" height="27" as="geometry" />
        </mxCell>
        <mxCell id="17btKouk7AmF3oWmSYIW-88" value="Administrator" style="swimlane;fontStyle=1;align=center;verticalAlign=top;childLayout=stackLayout;horizontal=1;startSize=25.91111077202691;horizontalStack=0;resizeParent=1;resizeParentMax=0;resizeLast=0;collapsible=0;marginBottom=0;" vertex="1" parent="1">
          <mxGeometry x="2679" y="363" width="150" height="111.91111077202692" as="geometry" />
        </mxCell>
        <mxCell id="17btKouk7AmF3oWmSYIW-89" style="line;strokeWidth=1;fillColor=none;align=left;verticalAlign=middle;spacingTop=-1;spacingLeft=3;spacingRight=3;rotatable=0;labelPosition=right;points=[];portConstraint=eastwest;strokeColor=inherit;" vertex="1" parent="17btKouk7AmF3oWmSYIW-88">
          <mxGeometry y="25.91111077202691" width="150" height="8" as="geometry" />
        </mxCell>
        <mxCell id="17btKouk7AmF3oWmSYIW-90" value="+ addDoctor()" style="text;strokeColor=none;fillColor=none;align=left;verticalAlign=top;spacingLeft=4;spacingRight=4;overflow=hidden;rotatable=0;points=[[0,0.5],[1,0.5]];portConstraint=eastwest;" vertex="1" parent="17btKouk7AmF3oWmSYIW-88">
          <mxGeometry y="33.91111077202691" width="150" height="26" as="geometry" />
        </mxCell>
        <mxCell id="17btKouk7AmF3oWmSYIW-91" value="+ addNurse()" style="text;strokeColor=none;fillColor=none;align=left;verticalAlign=top;spacingLeft=4;spacingRight=4;overflow=hidden;rotatable=0;points=[[0,0.5],[1,0.5]];portConstraint=eastwest;" vertex="1" parent="17btKouk7AmF3oWmSYIW-88">
          <mxGeometry y="59.91111077202691" width="150" height="26" as="geometry" />
        </mxCell>
        <mxCell id="17btKouk7AmF3oWmSYIW-92" value="+ addReceptionist()" style="text;strokeColor=none;fillColor=none;align=left;verticalAlign=top;spacingLeft=4;spacingRight=4;overflow=hidden;rotatable=0;points=[[0,0.5],[1,0.5]];portConstraint=eastwest;" vertex="1" parent="17btKouk7AmF3oWmSYIW-88">
          <mxGeometry y="85.91111077202692" width="150" height="26" as="geometry" />
        </mxCell>
        <mxCell id="17btKouk7AmF3oWmSYIW-93" value="Patient" style="swimlane;fontStyle=1;align=center;verticalAlign=top;childLayout=stackLayout;horizontal=1;startSize=26.25714329310826;horizontalStack=0;resizeParent=1;resizeParentMax=0;resizeLast=0;collapsible=0;marginBottom=0;" vertex="1" parent="1">
          <mxGeometry x="237" y="660" width="175" height="190.25714329310824" as="geometry" />
        </mxCell>
        <mxCell id="17btKouk7AmF3oWmSYIW-94" value="+ patientId: int" style="text;strokeColor=none;fillColor=none;align=left;verticalAlign=top;spacingLeft=4;spacingRight=4;overflow=hidden;rotatable=0;points=[[0,0.5],[1,0.5]];portConstraint=eastwest;" vertex="1" parent="17btKouk7AmF3oWmSYIW-93">
          <mxGeometry y="26.25714329310826" width="175" height="26" as="geometry" />
        </mxCell>
        <mxCell id="17btKouk7AmF3oWmSYIW-95" value="+ admissionDate: date" style="text;strokeColor=none;fillColor=none;align=left;verticalAlign=top;spacingLeft=4;spacingRight=4;overflow=hidden;rotatable=0;points=[[0,0.5],[1,0.5]];portConstraint=eastwest;" vertex="1" parent="17btKouk7AmF3oWmSYIW-93">
          <mxGeometry y="52.25714329310826" width="175" height="26" as="geometry" />
        </mxCell>
        <mxCell id="17btKouk7AmF3oWmSYIW-96" value="+ dischargeDate: date" style="text;strokeColor=none;fillColor=none;align=left;verticalAlign=top;spacingLeft=4;spacingRight=4;overflow=hidden;rotatable=0;points=[[0,0.5],[1,0.5]];portConstraint=eastwest;" vertex="1" parent="17btKouk7AmF3oWmSYIW-93">
          <mxGeometry y="78.25714329310826" width="175" height="26" as="geometry" />
        </mxCell>
        <mxCell id="17btKouk7AmF3oWmSYIW-97" value="+ doctor: Doctor" style="text;strokeColor=none;fillColor=none;align=left;verticalAlign=top;spacingLeft=4;spacingRight=4;overflow=hidden;rotatable=0;points=[[0,0.5],[1,0.5]];portConstraint=eastwest;" vertex="1" parent="17btKouk7AmF3oWmSYIW-93">
          <mxGeometry y="104.25714329310826" width="175" height="26" as="geometry" />
        </mxCell>
        <mxCell id="17btKouk7AmF3oWmSYIW-98" style="line;strokeWidth=1;fillColor=none;align=left;verticalAlign=middle;spacingTop=-1;spacingLeft=3;spacingRight=3;rotatable=0;labelPosition=right;points=[];portConstraint=eastwest;strokeColor=inherit;" vertex="1" parent="17btKouk7AmF3oWmSYIW-93">
          <mxGeometry y="130.25714329310824" width="175" height="8" as="geometry" />
        </mxCell>
        <mxCell id="17btKouk7AmF3oWmSYIW-99" value="+ admit()" style="text;strokeColor=none;fillColor=none;align=left;verticalAlign=top;spacingLeft=4;spacingRight=4;overflow=hidden;rotatable=0;points=[[0,0.5],[1,0.5]];portConstraint=eastwest;" vertex="1" parent="17btKouk7AmF3oWmSYIW-93">
          <mxGeometry y="138.25714329310824" width="175" height="26" as="geometry" />
        </mxCell>
        <mxCell id="17btKouk7AmF3oWmSYIW-100" value="+ discharge()" style="text;strokeColor=none;fillColor=none;align=left;verticalAlign=top;spacingLeft=4;spacingRight=4;overflow=hidden;rotatable=0;points=[[0,0.5],[1,0.5]];portConstraint=eastwest;" vertex="1" parent="17btKouk7AmF3oWmSYIW-93">
          <mxGeometry y="164.25714329310824" width="175" height="26" as="geometry" />
        </mxCell>
        <mxCell id="17btKouk7AmF3oWmSYIW-101" value="OPDPatient" style="swimlane;fontStyle=1;align=center;verticalAlign=top;childLayout=stackLayout;horizontal=1;startSize=23.773912512737773;horizontalStack=0;resizeParent=1;resizeParentMax=0;resizeLast=0;collapsible=0;marginBottom=0;" vertex="1" parent="1">
          <mxGeometry x="26" y="284" width="160" height="275.77391251273775" as="geometry" />
        </mxCell>
        <mxCell id="17btKouk7AmF3oWmSYIW-102" value="+ name" style="text;strokeColor=none;fillColor=none;align=left;verticalAlign=top;spacingLeft=4;spacingRight=4;overflow=hidden;rotatable=0;points=[[0,0.5],[1,0.5]];portConstraint=eastwest;" vertex="1" parent="17btKouk7AmF3oWmSYIW-101">
          <mxGeometry y="23.773912512737773" width="160" height="24" as="geometry" />
        </mxCell>
        <mxCell id="17btKouk7AmF3oWmSYIW-103" value="+ age" style="text;strokeColor=none;fillColor=none;align=left;verticalAlign=top;spacingLeft=4;spacingRight=4;overflow=hidden;rotatable=0;points=[[0,0.5],[1,0.5]];portConstraint=eastwest;" vertex="1" parent="17btKouk7AmF3oWmSYIW-101">
          <mxGeometry y="47.77391251273777" width="160" height="24" as="geometry" />
        </mxCell>
        <mxCell id="17btKouk7AmF3oWmSYIW-104" value="+ sex" style="text;strokeColor=none;fillColor=none;align=left;verticalAlign=top;spacingLeft=4;spacingRight=4;overflow=hidden;rotatable=0;points=[[0,0.5],[1,0.5]];portConstraint=eastwest;" vertex="1" parent="17btKouk7AmF3oWmSYIW-101">
          <mxGeometry y="71.77391251273778" width="160" height="24" as="geometry" />
        </mxCell>
        <mxCell id="17btKouk7AmF3oWmSYIW-105" value="+ address" style="text;strokeColor=none;fillColor=none;align=left;verticalAlign=top;spacingLeft=4;spacingRight=4;overflow=hidden;rotatable=0;points=[[0,0.5],[1,0.5]];portConstraint=eastwest;" vertex="1" parent="17btKouk7AmF3oWmSYIW-101">
          <mxGeometry y="95.77391251273778" width="160" height="24" as="geometry" />
        </mxCell>
        <mxCell id="17btKouk7AmF3oWmSYIW-106" value="+ contactNumber" style="text;strokeColor=none;fillColor=none;align=left;verticalAlign=top;spacingLeft=4;spacingRight=4;overflow=hidden;rotatable=0;points=[[0,0.5],[1,0.5]];portConstraint=eastwest;" vertex="1" parent="17btKouk7AmF3oWmSYIW-101">
          <mxGeometry y="119.77391251273778" width="160" height="24" as="geometry" />
        </mxCell>
        <mxCell id="17btKouk7AmF3oWmSYIW-107" value="+ nationality" style="text;strokeColor=none;fillColor=none;align=left;verticalAlign=top;spacingLeft=4;spacingRight=4;overflow=hidden;rotatable=0;points=[[0,0.5],[1,0.5]];portConstraint=eastwest;" vertex="1" parent="17btKouk7AmF3oWmSYIW-101">
          <mxGeometry y="143.77391251273778" width="160" height="24" as="geometry" />
        </mxCell>
        <mxCell id="17btKouk7AmF3oWmSYIW-108" value="+ referringSource" style="text;strokeColor=none;fillColor=none;align=left;verticalAlign=top;spacingLeft=4;spacingRight=4;overflow=hidden;rotatable=0;points=[[0,0.5],[1,0.5]];portConstraint=eastwest;" vertex="1" parent="17btKouk7AmF3oWmSYIW-101">
          <mxGeometry y="167.77391251273778" width="160" height="24" as="geometry" />
        </mxCell>
        <mxCell id="17btKouk7AmF3oWmSYIW-109" value="+ sponsorshipDetails" style="text;strokeColor=none;fillColor=none;align=left;verticalAlign=top;spacingLeft=4;spacingRight=4;overflow=hidden;rotatable=0;points=[[0,0.5],[1,0.5]];portConstraint=eastwest;" vertex="1" parent="17btKouk7AmF3oWmSYIW-101">
          <mxGeometry y="191.77391251273778" width="160" height="24" as="geometry" />
        </mxCell>
        <mxCell id="17btKouk7AmF3oWmSYIW-110" value="+ department" style="text;strokeColor=none;fillColor=none;align=left;verticalAlign=top;spacingLeft=4;spacingRight=4;overflow=hidden;rotatable=0;points=[[0,0.5],[1,0.5]];portConstraint=eastwest;" vertex="1" parent="17btKouk7AmF3oWmSYIW-101">
          <mxGeometry y="215.77391251273778" width="160" height="24" as="geometry" />
        </mxCell>
        <mxCell id="17btKouk7AmF3oWmSYIW-111" value="+ consultant" style="text;strokeColor=none;fillColor=none;align=left;verticalAlign=top;spacingLeft=4;spacingRight=4;overflow=hidden;rotatable=0;points=[[0,0.5],[1,0.5]];portConstraint=eastwest;" vertex="1" parent="17btKouk7AmF3oWmSYIW-101">
          <mxGeometry y="239.77391251273778" width="160" height="24" as="geometry" />
        </mxCell>
        <mxCell id="17btKouk7AmF3oWmSYIW-112" style="line;strokeWidth=1;fillColor=none;align=left;verticalAlign=middle;spacingTop=-1;spacingLeft=3;spacingRight=3;rotatable=0;labelPosition=right;points=[];portConstraint=eastwest;strokeColor=inherit;" vertex="1" parent="17btKouk7AmF3oWmSYIW-101">
          <mxGeometry y="263.77391251273775" width="160" height="12" as="geometry" />
        </mxCell>
        <mxCell id="17btKouk7AmF3oWmSYIW-113" value="InPatient" style="swimlane;fontStyle=1;align=center;verticalAlign=top;childLayout=stackLayout;horizontal=1;startSize=23.57037127459491;horizontalStack=0;resizeParent=1;resizeParentMax=0;resizeLast=0;collapsible=0;marginBottom=0;" vertex="1" parent="1">
          <mxGeometry x="1666" y="262" width="166" height="323.5703712745949" as="geometry" />
        </mxCell>
        <mxCell id="17btKouk7AmF3oWmSYIW-114" value="+ name" style="text;strokeColor=none;fillColor=none;align=left;verticalAlign=top;spacingLeft=4;spacingRight=4;overflow=hidden;rotatable=0;points=[[0,0.5],[1,0.5]];portConstraint=eastwest;" vertex="1" parent="17btKouk7AmF3oWmSYIW-113">
          <mxGeometry y="23.57037127459491" width="166" height="24" as="geometry" />
        </mxCell>
        <mxCell id="17btKouk7AmF3oWmSYIW-115" value="+ age" style="text;strokeColor=none;fillColor=none;align=left;verticalAlign=top;spacingLeft=4;spacingRight=4;overflow=hidden;rotatable=0;points=[[0,0.5],[1,0.5]];portConstraint=eastwest;" vertex="1" parent="17btKouk7AmF3oWmSYIW-113">
          <mxGeometry y="47.570371274594905" width="166" height="24" as="geometry" />
        </mxCell>
        <mxCell id="17btKouk7AmF3oWmSYIW-116" value="+ sex" style="text;strokeColor=none;fillColor=none;align=left;verticalAlign=top;spacingLeft=4;spacingRight=4;overflow=hidden;rotatable=0;points=[[0,0.5],[1,0.5]];portConstraint=eastwest;" vertex="1" parent="17btKouk7AmF3oWmSYIW-113">
          <mxGeometry y="71.5703712745949" width="166" height="24" as="geometry" />
        </mxCell>
        <mxCell id="17btKouk7AmF3oWmSYIW-117" value="+ address" style="text;strokeColor=none;fillColor=none;align=left;verticalAlign=top;spacingLeft=4;spacingRight=4;overflow=hidden;rotatable=0;points=[[0,0.5],[1,0.5]];portConstraint=eastwest;" vertex="1" parent="17btKouk7AmF3oWmSYIW-113">
          <mxGeometry y="95.5703712745949" width="166" height="24" as="geometry" />
        </mxCell>
        <mxCell id="17btKouk7AmF3oWmSYIW-118" value="+ contactNumber" style="text;strokeColor=none;fillColor=none;align=left;verticalAlign=top;spacingLeft=4;spacingRight=4;overflow=hidden;rotatable=0;points=[[0,0.5],[1,0.5]];portConstraint=eastwest;" vertex="1" parent="17btKouk7AmF3oWmSYIW-113">
          <mxGeometry y="119.5703712745949" width="166" height="24" as="geometry" />
        </mxCell>
        <mxCell id="17btKouk7AmF3oWmSYIW-119" value="+ nationality" style="text;strokeColor=none;fillColor=none;align=left;verticalAlign=top;spacingLeft=4;spacingRight=4;overflow=hidden;rotatable=0;points=[[0,0.5],[1,0.5]];portConstraint=eastwest;" vertex="1" parent="17btKouk7AmF3oWmSYIW-113">
          <mxGeometry y="143.5703712745949" width="166" height="24" as="geometry" />
        </mxCell>
        <mxCell id="17btKouk7AmF3oWmSYIW-120" value="+ referringSource" style="text;strokeColor=none;fillColor=none;align=left;verticalAlign=top;spacingLeft=4;spacingRight=4;overflow=hidden;rotatable=0;points=[[0,0.5],[1,0.5]];portConstraint=eastwest;" vertex="1" parent="17btKouk7AmF3oWmSYIW-113">
          <mxGeometry y="167.5703712745949" width="166" height="24" as="geometry" />
        </mxCell>
        <mxCell id="17btKouk7AmF3oWmSYIW-121" value="+ sponsorshipDetails" style="text;strokeColor=none;fillColor=none;align=left;verticalAlign=top;spacingLeft=4;spacingRight=4;overflow=hidden;rotatable=0;points=[[0,0.5],[1,0.5]];portConstraint=eastwest;" vertex="1" parent="17btKouk7AmF3oWmSYIW-113">
          <mxGeometry y="191.5703712745949" width="166" height="24" as="geometry" />
        </mxCell>
        <mxCell id="17btKouk7AmF3oWmSYIW-122" value="+ department" style="text;strokeColor=none;fillColor=none;align=left;verticalAlign=top;spacingLeft=4;spacingRight=4;overflow=hidden;rotatable=0;points=[[0,0.5],[1,0.5]];portConstraint=eastwest;" vertex="1" parent="17btKouk7AmF3oWmSYIW-113">
          <mxGeometry y="215.5703712745949" width="166" height="24" as="geometry" />
        </mxCell>
        <mxCell id="17btKouk7AmF3oWmSYIW-123" value="+ consultantInCharge" style="text;strokeColor=none;fillColor=none;align=left;verticalAlign=top;spacingLeft=4;spacingRight=4;overflow=hidden;rotatable=0;points=[[0,0.5],[1,0.5]];portConstraint=eastwest;" vertex="1" parent="17btKouk7AmF3oWmSYIW-113">
          <mxGeometry y="239.5703712745949" width="166" height="24" as="geometry" />
        </mxCell>
        <mxCell id="17btKouk7AmF3oWmSYIW-124" value="+ roomRequirement" style="text;strokeColor=none;fillColor=none;align=left;verticalAlign=top;spacingLeft=4;spacingRight=4;overflow=hidden;rotatable=0;points=[[0,0.5],[1,0.5]];portConstraint=eastwest;" vertex="1" parent="17btKouk7AmF3oWmSYIW-113">
          <mxGeometry y="263.5703712745949" width="166" height="24" as="geometry" />
        </mxCell>
        <mxCell id="17btKouk7AmF3oWmSYIW-125" value="+ treatmentRequired" style="text;strokeColor=none;fillColor=none;align=left;verticalAlign=top;spacingLeft=4;spacingRight=4;overflow=hidden;rotatable=0;points=[[0,0.5],[1,0.5]];portConstraint=eastwest;" vertex="1" parent="17btKouk7AmF3oWmSYIW-113">
          <mxGeometry y="287.5703712745949" width="166" height="24" as="geometry" />
        </mxCell>
        <mxCell id="17btKouk7AmF3oWmSYIW-126" style="line;strokeWidth=1;fillColor=none;align=left;verticalAlign=middle;spacingTop=-1;spacingLeft=3;spacingRight=3;rotatable=0;labelPosition=right;points=[];portConstraint=eastwest;strokeColor=inherit;" vertex="1" parent="17btKouk7AmF3oWmSYIW-113">
          <mxGeometry y="311.5703712745949" width="166" height="12" as="geometry" />
        </mxCell>
        <mxCell id="17btKouk7AmF3oWmSYIW-127" value="OPDCard" style="swimlane;fontStyle=1;align=center;verticalAlign=top;childLayout=stackLayout;horizontal=1;startSize=25.91111077202691;horizontalStack=0;resizeParent=1;resizeParentMax=0;resizeLast=0;collapsible=0;marginBottom=0;" vertex="1" parent="1">
          <mxGeometry x="20" y="54" width="173" height="116.91111077202692" as="geometry" />
        </mxCell>
        <mxCell id="17btKouk7AmF3oWmSYIW-128" value="+ patientInfo" style="text;strokeColor=none;fillColor=none;align=left;verticalAlign=top;spacingLeft=4;spacingRight=4;overflow=hidden;rotatable=0;points=[[0,0.5],[1,0.5]];portConstraint=eastwest;" vertex="1" parent="17btKouk7AmF3oWmSYIW-127">
          <mxGeometry y="25.91111077202691" width="173" height="26" as="geometry" />
        </mxCell>
        <mxCell id="17btKouk7AmF3oWmSYIW-129" value="+ registrationNumber" style="text;strokeColor=none;fillColor=none;align=left;verticalAlign=top;spacingLeft=4;spacingRight=4;overflow=hidden;rotatable=0;points=[[0,0.5],[1,0.5]];portConstraint=eastwest;" vertex="1" parent="17btKouk7AmF3oWmSYIW-127">
          <mxGeometry y="51.91111077202691" width="173" height="26" as="geometry" />
        </mxCell>
        <mxCell id="17btKouk7AmF3oWmSYIW-130" value="+ consultationCharges" style="text;strokeColor=none;fillColor=none;align=left;verticalAlign=top;spacingLeft=4;spacingRight=4;overflow=hidden;rotatable=0;points=[[0,0.5],[1,0.5]];portConstraint=eastwest;" vertex="1" parent="17btKouk7AmF3oWmSYIW-127">
          <mxGeometry y="77.91111077202692" width="173" height="26" as="geometry" />
        </mxCell>
        <mxCell id="17btKouk7AmF3oWmSYIW-131" style="line;strokeWidth=1;fillColor=none;align=left;verticalAlign=middle;spacingTop=-1;spacingLeft=3;spacingRight=3;rotatable=0;labelPosition=right;points=[];portConstraint=eastwest;strokeColor=inherit;" vertex="1" parent="17btKouk7AmF3oWmSYIW-127">
          <mxGeometry y="103.91111077202692" width="173" height="13" as="geometry" />
        </mxCell>
        <mxCell id="17btKouk7AmF3oWmSYIW-132" value="AdmissionForm" style="swimlane;fontStyle=1;align=center;verticalAlign=top;childLayout=stackLayout;horizontal=1;startSize=24.830768291766827;horizontalStack=0;resizeParent=1;resizeParentMax=0;resizeLast=0;collapsible=0;marginBottom=0;" vertex="1" parent="1">
          <mxGeometry x="548" y="31" width="169" height="161.83076829176684" as="geometry" />
        </mxCell>
        <mxCell id="17btKouk7AmF3oWmSYIW-133" value="+ patientInfo" style="text;strokeColor=none;fillColor=none;align=left;verticalAlign=top;spacingLeft=4;spacingRight=4;overflow=hidden;rotatable=0;points=[[0,0.5],[1,0.5]];portConstraint=eastwest;" vertex="1" parent="17btKouk7AmF3oWmSYIW-132">
          <mxGeometry y="24.830768291766827" width="169" height="25" as="geometry" />
        </mxCell>
        <mxCell id="17btKouk7AmF3oWmSYIW-134" value="+ registrationNumber" style="text;strokeColor=none;fillColor=none;align=left;verticalAlign=top;spacingLeft=4;spacingRight=4;overflow=hidden;rotatable=0;points=[[0,0.5],[1,0.5]];portConstraint=eastwest;" vertex="1" parent="17btKouk7AmF3oWmSYIW-132">
          <mxGeometry y="49.83076829176683" width="169" height="25" as="geometry" />
        </mxCell>
        <mxCell id="17btKouk7AmF3oWmSYIW-135" value="+ roomRequirement" style="text;strokeColor=none;fillColor=none;align=left;verticalAlign=top;spacingLeft=4;spacingRight=4;overflow=hidden;rotatable=0;points=[[0,0.5],[1,0.5]];portConstraint=eastwest;" vertex="1" parent="17btKouk7AmF3oWmSYIW-132">
          <mxGeometry y="74.83076829176683" width="169" height="25" as="geometry" />
        </mxCell>
        <mxCell id="17btKouk7AmF3oWmSYIW-136" value="+ consultantInCharge" style="text;strokeColor=none;fillColor=none;align=left;verticalAlign=top;spacingLeft=4;spacingRight=4;overflow=hidden;rotatable=0;points=[[0,0.5],[1,0.5]];portConstraint=eastwest;" vertex="1" parent="17btKouk7AmF3oWmSYIW-132">
          <mxGeometry y="99.83076829176683" width="169" height="25" as="geometry" />
        </mxCell>
        <mxCell id="17btKouk7AmF3oWmSYIW-137" value="+ treatmentRequired" style="text;strokeColor=none;fillColor=none;align=left;verticalAlign=top;spacingLeft=4;spacingRight=4;overflow=hidden;rotatable=0;points=[[0,0.5],[1,0.5]];portConstraint=eastwest;" vertex="1" parent="17btKouk7AmF3oWmSYIW-132">
          <mxGeometry y="124.83076829176683" width="169" height="25" as="geometry" />
        </mxCell>
        <mxCell id="17btKouk7AmF3oWmSYIW-138" style="line;strokeWidth=1;fillColor=none;align=left;verticalAlign=middle;spacingTop=-1;spacingLeft=3;spacingRight=3;rotatable=0;labelPosition=right;points=[];portConstraint=eastwest;strokeColor=inherit;" vertex="1" parent="17btKouk7AmF3oWmSYIW-132">
          <mxGeometry y="149.83076829176684" width="169" height="12" as="geometry" />
        </mxCell>
        <mxCell id="17btKouk7AmF3oWmSYIW-139" value="InPatientDailyReport" style="swimlane;fontStyle=1;align=center;verticalAlign=top;childLayout=stackLayout;horizontal=1;startSize=28.720001220703125;horizontalStack=0;resizeParent=1;resizeParentMax=0;resizeLast=0;collapsible=0;marginBottom=0;" vertex="1" parent="1">
          <mxGeometry x="2753" y="76" width="170" height="65.72000122070312" as="geometry" />
        </mxCell>
        <mxCell id="17btKouk7AmF3oWmSYIW-140" style="line;strokeWidth=1;fillColor=none;align=left;verticalAlign=middle;spacingTop=-1;spacingLeft=3;spacingRight=3;rotatable=0;labelPosition=right;points=[];portConstraint=eastwest;strokeColor=inherit;" vertex="1" parent="17btKouk7AmF3oWmSYIW-139">
          <mxGeometry y="28.720001220703125" width="170" height="8" as="geometry" />
        </mxCell>
        <mxCell id="17btKouk7AmF3oWmSYIW-141" value="+ generateReport()" style="text;strokeColor=none;fillColor=none;align=left;verticalAlign=top;spacingLeft=4;spacingRight=4;overflow=hidden;rotatable=0;points=[[0,0.5],[1,0.5]];portConstraint=eastwest;" vertex="1" parent="17btKouk7AmF3oWmSYIW-139">
          <mxGeometry y="36.720001220703125" width="170" height="29" as="geometry" />
        </mxCell>
        <mxCell id="17btKouk7AmF3oWmSYIW-142" value="Prescription" style="swimlane;fontStyle=1;align=center;verticalAlign=top;childLayout=stackLayout;horizontal=1;startSize=24.258823170381433;horizontalStack=0;resizeParent=1;resizeParentMax=0;resizeLast=0;collapsible=0;marginBottom=0;" vertex="1" parent="1">
          <mxGeometry x="2387" y="318" width="120" height="204.25882317038145" as="geometry" />
        </mxCell>
        <mxCell id="17btKouk7AmF3oWmSYIW-143" value="+ complaints" style="text;strokeColor=none;fillColor=none;align=left;verticalAlign=top;spacingLeft=4;spacingRight=4;overflow=hidden;rotatable=0;points=[[0,0.5],[1,0.5]];portConstraint=eastwest;" vertex="1" parent="17btKouk7AmF3oWmSYIW-142">
          <mxGeometry y="24.258823170381433" width="120" height="24" as="geometry" />
        </mxCell>
        <mxCell id="17btKouk7AmF3oWmSYIW-144" value="+ history" style="text;strokeColor=none;fillColor=none;align=left;verticalAlign=top;spacingLeft=4;spacingRight=4;overflow=hidden;rotatable=0;points=[[0,0.5],[1,0.5]];portConstraint=eastwest;" vertex="1" parent="17btKouk7AmF3oWmSYIW-142">
          <mxGeometry y="48.25882317038143" width="120" height="24" as="geometry" />
        </mxCell>
        <mxCell id="17btKouk7AmF3oWmSYIW-145" value="+ diagnosis" style="text;strokeColor=none;fillColor=none;align=left;verticalAlign=top;spacingLeft=4;spacingRight=4;overflow=hidden;rotatable=0;points=[[0,0.5],[1,0.5]];portConstraint=eastwest;" vertex="1" parent="17btKouk7AmF3oWmSYIW-142">
          <mxGeometry y="72.25882317038143" width="120" height="24" as="geometry" />
        </mxCell>
        <mxCell id="17btKouk7AmF3oWmSYIW-146" value="+ investigation" style="text;strokeColor=none;fillColor=none;align=left;verticalAlign=top;spacingLeft=4;spacingRight=4;overflow=hidden;rotatable=0;points=[[0,0.5],[1,0.5]];portConstraint=eastwest;" vertex="1" parent="17btKouk7AmF3oWmSYIW-142">
          <mxGeometry y="96.25882317038143" width="120" height="24" as="geometry" />
        </mxCell>
        <mxCell id="17btKouk7AmF3oWmSYIW-147" value="+ medicines" style="text;strokeColor=none;fillColor=none;align=left;verticalAlign=top;spacingLeft=4;spacingRight=4;overflow=hidden;rotatable=0;points=[[0,0.5],[1,0.5]];portConstraint=eastwest;" vertex="1" parent="17btKouk7AmF3oWmSYIW-142">
          <mxGeometry y="120.25882317038143" width="120" height="24" as="geometry" />
        </mxCell>
        <mxCell id="17btKouk7AmF3oWmSYIW-148" value="+ advice" style="text;strokeColor=none;fillColor=none;align=left;verticalAlign=top;spacingLeft=4;spacingRight=4;overflow=hidden;rotatable=0;points=[[0,0.5],[1,0.5]];portConstraint=eastwest;" vertex="1" parent="17btKouk7AmF3oWmSYIW-142">
          <mxGeometry y="144.25882317038145" width="120" height="24" as="geometry" />
        </mxCell>
        <mxCell id="17btKouk7AmF3oWmSYIW-149" value="+ nextVisit" style="text;strokeColor=none;fillColor=none;align=left;verticalAlign=top;spacingLeft=4;spacingRight=4;overflow=hidden;rotatable=0;points=[[0,0.5],[1,0.5]];portConstraint=eastwest;" vertex="1" parent="17btKouk7AmF3oWmSYIW-142">
          <mxGeometry y="168.25882317038145" width="120" height="24" as="geometry" />
        </mxCell>
        <mxCell id="17btKouk7AmF3oWmSYIW-150" style="line;strokeWidth=1;fillColor=none;align=left;verticalAlign=middle;spacingTop=-1;spacingLeft=3;spacingRight=3;rotatable=0;labelPosition=right;points=[];portConstraint=eastwest;strokeColor=inherit;" vertex="1" parent="17btKouk7AmF3oWmSYIW-142">
          <mxGeometry y="192.25882317038145" width="120" height="12" as="geometry" />
        </mxCell>
        <mxCell id="17btKouk7AmF3oWmSYIW-151" value="Receipt" style="swimlane;fontStyle=1;align=center;verticalAlign=top;childLayout=stackLayout;horizontal=1;startSize=24.06315853721217;horizontalStack=0;resizeParent=1;resizeParentMax=0;resizeLast=0;collapsible=0;marginBottom=0;" vertex="1" parent="1">
          <mxGeometry x="1359" y="638" width="159" height="228.0631585372122" as="geometry" />
        </mxCell>
        <mxCell id="17btKouk7AmF3oWmSYIW-152" value="+ patientID" style="text;strokeColor=none;fillColor=none;align=left;verticalAlign=top;spacingLeft=4;spacingRight=4;overflow=hidden;rotatable=0;points=[[0,0.5],[1,0.5]];portConstraint=eastwest;" vertex="1" parent="17btKouk7AmF3oWmSYIW-151">
          <mxGeometry y="24.06315853721217" width="159" height="24" as="geometry" />
        </mxCell>
        <mxCell id="17btKouk7AmF3oWmSYIW-153" value="+ charges" style="text;strokeColor=none;fillColor=none;align=left;verticalAlign=top;spacingLeft=4;spacingRight=4;overflow=hidden;rotatable=0;points=[[0,0.5],[1,0.5]];portConstraint=eastwest;" vertex="1" parent="17btKouk7AmF3oWmSYIW-151">
          <mxGeometry y="48.063158537212175" width="159" height="24" as="geometry" />
        </mxCell>
        <mxCell id="17btKouk7AmF3oWmSYIW-154" value="+ concessionDetails" style="text;strokeColor=none;fillColor=none;align=left;verticalAlign=top;spacingLeft=4;spacingRight=4;overflow=hidden;rotatable=0;points=[[0,0.5],[1,0.5]];portConstraint=eastwest;" vertex="1" parent="17btKouk7AmF3oWmSYIW-151">
          <mxGeometry y="72.06315853721217" width="159" height="24" as="geometry" />
        </mxCell>
        <mxCell id="17btKouk7AmF3oWmSYIW-155" value="+ consultantCharges" style="text;strokeColor=none;fillColor=none;align=left;verticalAlign=top;spacingLeft=4;spacingRight=4;overflow=hidden;rotatable=0;points=[[0,0.5],[1,0.5]];portConstraint=eastwest;" vertex="1" parent="17btKouk7AmF3oWmSYIW-151">
          <mxGeometry y="96.06315853721217" width="159" height="24" as="geometry" />
        </mxCell>
        <mxCell id="17btKouk7AmF3oWmSYIW-156" value="+ serviceCharges" style="text;strokeColor=none;fillColor=none;align=left;verticalAlign=top;spacingLeft=4;spacingRight=4;overflow=hidden;rotatable=0;points=[[0,0.5],[1,0.5]];portConstraint=eastwest;" vertex="1" parent="17btKouk7AmF3oWmSYIW-151">
          <mxGeometry y="120.06315853721217" width="159" height="24" as="geometry" />
        </mxCell>
        <mxCell id="17btKouk7AmF3oWmSYIW-157" value="+ patientCategory" style="text;strokeColor=none;fillColor=none;align=left;verticalAlign=top;spacingLeft=4;spacingRight=4;overflow=hidden;rotatable=0;points=[[0,0.5],[1,0.5]];portConstraint=eastwest;" vertex="1" parent="17btKouk7AmF3oWmSYIW-151">
          <mxGeometry y="144.0631585372122" width="159" height="24" as="geometry" />
        </mxCell>
        <mxCell id="17btKouk7AmF3oWmSYIW-158" value="+ serviceTime" style="text;strokeColor=none;fillColor=none;align=left;verticalAlign=top;spacingLeft=4;spacingRight=4;overflow=hidden;rotatable=0;points=[[0,0.5],[1,0.5]];portConstraint=eastwest;" vertex="1" parent="17btKouk7AmF3oWmSYIW-151">
          <mxGeometry y="168.0631585372122" width="159" height="24" as="geometry" />
        </mxCell>
        <mxCell id="17btKouk7AmF3oWmSYIW-159" value="+ revisitDetails" style="text;strokeColor=none;fillColor=none;align=left;verticalAlign=top;spacingLeft=4;spacingRight=4;overflow=hidden;rotatable=0;points=[[0,0.5],[1,0.5]];portConstraint=eastwest;" vertex="1" parent="17btKouk7AmF3oWmSYIW-151">
          <mxGeometry y="192.0631585372122" width="159" height="24" as="geometry" />
        </mxCell>
        <mxCell id="17btKouk7AmF3oWmSYIW-160" style="line;strokeWidth=1;fillColor=none;align=left;verticalAlign=middle;spacingTop=-1;spacingLeft=3;spacingRight=3;rotatable=0;labelPosition=right;points=[];portConstraint=eastwest;strokeColor=inherit;" vertex="1" parent="17btKouk7AmF3oWmSYIW-151">
          <mxGeometry y="216.0631585372122" width="159" height="12" as="geometry" />
        </mxCell>
        <mxCell id="17btKouk7AmF3oWmSYIW-161" value="Test" style="swimlane;fontStyle=1;align=center;verticalAlign=top;childLayout=stackLayout;horizontal=1;startSize=24.830768291766827;horizontalStack=0;resizeParent=1;resizeParentMax=0;resizeLast=0;collapsible=0;marginBottom=0;" vertex="1" parent="1">
          <mxGeometry x="1787" y="672" width="202" height="161.83076829176684" as="geometry" />
        </mxCell>
        <mxCell id="17btKouk7AmF3oWmSYIW-162" value="+ testParameters" style="text;strokeColor=none;fillColor=none;align=left;verticalAlign=top;spacingLeft=4;spacingRight=4;overflow=hidden;rotatable=0;points=[[0,0.5],[1,0.5]];portConstraint=eastwest;" vertex="1" parent="17btKouk7AmF3oWmSYIW-161">
          <mxGeometry y="24.830768291766827" width="202" height="25" as="geometry" />
        </mxCell>
        <mxCell id="17btKouk7AmF3oWmSYIW-163" value="+ interpretations" style="text;strokeColor=none;fillColor=none;align=left;verticalAlign=top;spacingLeft=4;spacingRight=4;overflow=hidden;rotatable=0;points=[[0,0.5],[1,0.5]];portConstraint=eastwest;" vertex="1" parent="17btKouk7AmF3oWmSYIW-161">
          <mxGeometry y="49.83076829176683" width="202" height="25" as="geometry" />
        </mxCell>
        <mxCell id="17btKouk7AmF3oWmSYIW-164" value="+ formulae" style="text;strokeColor=none;fillColor=none;align=left;verticalAlign=top;spacingLeft=4;spacingRight=4;overflow=hidden;rotatable=0;points=[[0,0.5],[1,0.5]];portConstraint=eastwest;" vertex="1" parent="17btKouk7AmF3oWmSYIW-161">
          <mxGeometry y="74.83076829176683" width="202" height="25" as="geometry" />
        </mxCell>
        <mxCell id="17btKouk7AmF3oWmSYIW-165" value="+ ageWiseReferenceRange" style="text;strokeColor=none;fillColor=none;align=left;verticalAlign=top;spacingLeft=4;spacingRight=4;overflow=hidden;rotatable=0;points=[[0,0.5],[1,0.5]];portConstraint=eastwest;" vertex="1" parent="17btKouk7AmF3oWmSYIW-161">
          <mxGeometry y="99.83076829176683" width="202" height="25" as="geometry" />
        </mxCell>
        <mxCell id="17btKouk7AmF3oWmSYIW-166" value="+ sexWiseReferenceRange" style="text;strokeColor=none;fillColor=none;align=left;verticalAlign=top;spacingLeft=4;spacingRight=4;overflow=hidden;rotatable=0;points=[[0,0.5],[1,0.5]];portConstraint=eastwest;" vertex="1" parent="17btKouk7AmF3oWmSYIW-161">
          <mxGeometry y="124.83076829176683" width="202" height="25" as="geometry" />
        </mxCell>
        <mxCell id="17btKouk7AmF3oWmSYIW-167" style="line;strokeWidth=1;fillColor=none;align=left;verticalAlign=middle;spacingTop=-1;spacingLeft=3;spacingRight=3;rotatable=0;labelPosition=right;points=[];portConstraint=eastwest;strokeColor=inherit;" vertex="1" parent="17btKouk7AmF3oWmSYIW-161">
          <mxGeometry y="149.83076829176684" width="202" height="12" as="geometry" />
        </mxCell>
        <mxCell id="17btKouk7AmF3oWmSYIW-168" value="PatientRecord" style="swimlane;fontStyle=1;align=center;verticalAlign=top;childLayout=stackLayout;horizontal=1;startSize=24.830768291766827;horizontalStack=0;resizeParent=1;resizeParentMax=0;resizeLast=0;collapsible=0;marginBottom=0;" vertex="1" parent="1">
          <mxGeometry x="2039" y="672" width="206" height="161.83076829176684" as="geometry" />
        </mxCell>
        <mxCell id="17btKouk7AmF3oWmSYIW-169" value="+ bedAllocation" style="text;strokeColor=none;fillColor=none;align=left;verticalAlign=top;spacingLeft=4;spacingRight=4;overflow=hidden;rotatable=0;points=[[0,0.5],[1,0.5]];portConstraint=eastwest;" vertex="1" parent="17btKouk7AmF3oWmSYIW-168">
          <mxGeometry y="24.830768291766827" width="206" height="25" as="geometry" />
        </mxCell>
        <mxCell id="17btKouk7AmF3oWmSYIW-170" value="+ consultantVisits" style="text;strokeColor=none;fillColor=none;align=left;verticalAlign=top;spacingLeft=4;spacingRight=4;overflow=hidden;rotatable=0;points=[[0,0.5],[1,0.5]];portConstraint=eastwest;" vertex="1" parent="17btKouk7AmF3oWmSYIW-168">
          <mxGeometry y="49.83076829176683" width="206" height="25" as="geometry" />
        </mxCell>
        <mxCell id="17btKouk7AmF3oWmSYIW-171" value="+ clinicalData" style="text;strokeColor=none;fillColor=none;align=left;verticalAlign=top;spacingLeft=4;spacingRight=4;overflow=hidden;rotatable=0;points=[[0,0.5],[1,0.5]];portConstraint=eastwest;" vertex="1" parent="17btKouk7AmF3oWmSYIW-168">
          <mxGeometry y="74.83076829176683" width="206" height="25" as="geometry" />
        </mxCell>
        <mxCell id="17btKouk7AmF3oWmSYIW-172" value="+ investigationsRequisition" style="text;strokeColor=none;fillColor=none;align=left;verticalAlign=top;spacingLeft=4;spacingRight=4;overflow=hidden;rotatable=0;points=[[0,0.5],[1,0.5]];portConstraint=eastwest;" vertex="1" parent="17btKouk7AmF3oWmSYIW-168">
          <mxGeometry y="99.83076829176683" width="206" height="25" as="geometry" />
        </mxCell>
        <mxCell id="17btKouk7AmF3oWmSYIW-173" value="+ medicinesRequisition" style="text;strokeColor=none;fillColor=none;align=left;verticalAlign=top;spacingLeft=4;spacingRight=4;overflow=hidden;rotatable=0;points=[[0,0.5],[1,0.5]];portConstraint=eastwest;" vertex="1" parent="17btKouk7AmF3oWmSYIW-168">
          <mxGeometry y="124.83076829176683" width="206" height="25" as="geometry" />
        </mxCell>
        <mxCell id="17btKouk7AmF3oWmSYIW-174" style="line;strokeWidth=1;fillColor=none;align=left;verticalAlign=middle;spacingTop=-1;spacingLeft=3;spacingRight=3;rotatable=0;labelPosition=right;points=[];portConstraint=eastwest;strokeColor=inherit;" vertex="1" parent="17btKouk7AmF3oWmSYIW-168">
          <mxGeometry y="149.83076829176684" width="206" height="12" as="geometry" />
        </mxCell>
        <mxCell id="17btKouk7AmF3oWmSYIW-175" value="Bill" style="swimlane;fontStyle=1;align=center;verticalAlign=top;childLayout=stackLayout;horizontal=1;startSize=24.258823170381433;horizontalStack=0;resizeParent=1;resizeParentMax=0;resizeLast=0;collapsible=0;marginBottom=0;" vertex="1" parent="1">
          <mxGeometry x="2294" y="649" width="155" height="204.25882317038145" as="geometry" />
        </mxCell>
        <mxCell id="17btKouk7AmF3oWmSYIW-176" value="+ servicesAvailed" style="text;strokeColor=none;fillColor=none;align=left;verticalAlign=top;spacingLeft=4;spacingRight=4;overflow=hidden;rotatable=0;points=[[0,0.5],[1,0.5]];portConstraint=eastwest;" vertex="1" parent="17btKouk7AmF3oWmSYIW-175">
          <mxGeometry y="24.258823170381433" width="155" height="24" as="geometry" />
        </mxCell>
        <mxCell id="17btKouk7AmF3oWmSYIW-177" value="+ charges" style="text;strokeColor=none;fillColor=none;align=left;verticalAlign=top;spacingLeft=4;spacingRight=4;overflow=hidden;rotatable=0;points=[[0,0.5],[1,0.5]];portConstraint=eastwest;" vertex="1" parent="17btKouk7AmF3oWmSYIW-175">
          <mxGeometry y="48.25882317038143" width="155" height="24" as="geometry" />
        </mxCell>
        <mxCell id="17btKouk7AmF3oWmSYIW-178" value="+ advanceCollected" style="text;strokeColor=none;fillColor=none;align=left;verticalAlign=top;spacingLeft=4;spacingRight=4;overflow=hidden;rotatable=0;points=[[0,0.5],[1,0.5]];portConstraint=eastwest;" vertex="1" parent="17btKouk7AmF3oWmSYIW-175">
          <mxGeometry y="72.25882317038143" width="155" height="24" as="geometry" />
        </mxCell>
        <mxCell id="17btKouk7AmF3oWmSYIW-179" value="+ receipts" style="text;strokeColor=none;fillColor=none;align=left;verticalAlign=top;spacingLeft=4;spacingRight=4;overflow=hidden;rotatable=0;points=[[0,0.5],[1,0.5]];portConstraint=eastwest;" vertex="1" parent="17btKouk7AmF3oWmSYIW-175">
          <mxGeometry y="96.25882317038143" width="155" height="24" as="geometry" />
        </mxCell>
        <mxCell id="17btKouk7AmF3oWmSYIW-180" value="+ refunds" style="text;strokeColor=none;fillColor=none;align=left;verticalAlign=top;spacingLeft=4;spacingRight=4;overflow=hidden;rotatable=0;points=[[0,0.5],[1,0.5]];portConstraint=eastwest;" vertex="1" parent="17btKouk7AmF3oWmSYIW-175">
          <mxGeometry y="120.25882317038143" width="155" height="24" as="geometry" />
        </mxCell>
        <mxCell id="17btKouk7AmF3oWmSYIW-181" value="+ creditNotes" style="text;strokeColor=none;fillColor=none;align=left;verticalAlign=top;spacingLeft=4;spacingRight=4;overflow=hidden;rotatable=0;points=[[0,0.5],[1,0.5]];portConstraint=eastwest;" vertex="1" parent="17btKouk7AmF3oWmSYIW-175">
          <mxGeometry y="144.25882317038145" width="155" height="24" as="geometry" />
        </mxCell>
        <mxCell id="17btKouk7AmF3oWmSYIW-182" value="+ concessions" style="text;strokeColor=none;fillColor=none;align=left;verticalAlign=top;spacingLeft=4;spacingRight=4;overflow=hidden;rotatable=0;points=[[0,0.5],[1,0.5]];portConstraint=eastwest;" vertex="1" parent="17btKouk7AmF3oWmSYIW-175">
          <mxGeometry y="168.25882317038145" width="155" height="24" as="geometry" />
        </mxCell>
        <mxCell id="17btKouk7AmF3oWmSYIW-183" style="line;strokeWidth=1;fillColor=none;align=left;verticalAlign=middle;spacingTop=-1;spacingLeft=3;spacingRight=3;rotatable=0;labelPosition=right;points=[];portConstraint=eastwest;strokeColor=inherit;" vertex="1" parent="17btKouk7AmF3oWmSYIW-175">
          <mxGeometry y="192.25882317038145" width="155" height="12" as="geometry" />
        </mxCell>
        <mxCell id="17btKouk7AmF3oWmSYIW-184" value="Item" style="swimlane;fontStyle=1;align=center;verticalAlign=top;childLayout=stackLayout;horizontal=1;startSize=24.50666707356771;horizontalStack=0;resizeParent=1;resizeParentMax=0;resizeLast=0;collapsible=0;marginBottom=0;" vertex="1" parent="1">
          <mxGeometry x="2219" y="1222" width="141" height="186.5066670735677" as="geometry" />
        </mxCell>
        <mxCell id="17btKouk7AmF3oWmSYIW-185" value="+ name" style="text;strokeColor=none;fillColor=none;align=left;verticalAlign=top;spacingLeft=4;spacingRight=4;overflow=hidden;rotatable=0;points=[[0,0.5],[1,0.5]];portConstraint=eastwest;" vertex="1" parent="17btKouk7AmF3oWmSYIW-184">
          <mxGeometry y="24.50666707356771" width="141" height="25" as="geometry" />
        </mxCell>
        <mxCell id="17btKouk7AmF3oWmSYIW-186" value="+ category" style="text;strokeColor=none;fillColor=none;align=left;verticalAlign=top;spacingLeft=4;spacingRight=4;overflow=hidden;rotatable=0;points=[[0,0.5],[1,0.5]];portConstraint=eastwest;" vertex="1" parent="17btKouk7AmF3oWmSYIW-184">
          <mxGeometry y="49.50666707356771" width="141" height="25" as="geometry" />
        </mxCell>
        <mxCell id="17btKouk7AmF3oWmSYIW-187" value="+ supplierDetails" style="text;strokeColor=none;fillColor=none;align=left;verticalAlign=top;spacingLeft=4;spacingRight=4;overflow=hidden;rotatable=0;points=[[0,0.5],[1,0.5]];portConstraint=eastwest;" vertex="1" parent="17btKouk7AmF3oWmSYIW-184">
          <mxGeometry y="74.50666707356771" width="141" height="25" as="geometry" />
        </mxCell>
        <mxCell id="17btKouk7AmF3oWmSYIW-188" value="+ purchaseDetails" style="text;strokeColor=none;fillColor=none;align=left;verticalAlign=top;spacingLeft=4;spacingRight=4;overflow=hidden;rotatable=0;points=[[0,0.5],[1,0.5]];portConstraint=eastwest;" vertex="1" parent="17btKouk7AmF3oWmSYIW-184">
          <mxGeometry y="99.50666707356771" width="141" height="25" as="geometry" />
        </mxCell>
        <mxCell id="17btKouk7AmF3oWmSYIW-189" value="+ stockDetails" style="text;strokeColor=none;fillColor=none;align=left;verticalAlign=top;spacingLeft=4;spacingRight=4;overflow=hidden;rotatable=0;points=[[0,0.5],[1,0.5]];portConstraint=eastwest;" vertex="1" parent="17btKouk7AmF3oWmSYIW-184">
          <mxGeometry y="124.50666707356771" width="141" height="25" as="geometry" />
        </mxCell>
        <mxCell id="17btKouk7AmF3oWmSYIW-190" value="+ expiryDate" style="text;strokeColor=none;fillColor=none;align=left;verticalAlign=top;spacingLeft=4;spacingRight=4;overflow=hidden;rotatable=0;points=[[0,0.5],[1,0.5]];portConstraint=eastwest;" vertex="1" parent="17btKouk7AmF3oWmSYIW-184">
          <mxGeometry y="149.5066670735677" width="141" height="25" as="geometry" />
        </mxCell>
        <mxCell id="17btKouk7AmF3oWmSYIW-191" style="line;strokeWidth=1;fillColor=none;align=left;verticalAlign=middle;spacingTop=-1;spacingLeft=3;spacingRight=3;rotatable=0;labelPosition=right;points=[];portConstraint=eastwest;strokeColor=inherit;" vertex="1" parent="17btKouk7AmF3oWmSYIW-184">
          <mxGeometry y="174.5066670735677" width="141" height="12" as="geometry" />
        </mxCell>
        <mxCell id="17btKouk7AmF3oWmSYIW-192" value="" style="curved=1;startArrow=none;endArrow=none;exitX=0.0018428383073257526;exitY=0.5386335595901498;entryX=0.5007018732830761;entryY=3.9736429850260414e-8;rounded=0;" edge="1" parent="1" source="17btKouk7AmF3oWmSYIW-1" target="17btKouk7AmF3oWmSYIW-9">
          <mxGeometry relative="1" as="geometry">
            <Array as="points">
              <mxPoint x="895" y="237" />
            </Array>
          </mxGeometry>
        </mxCell>
        <mxCell id="17btKouk7AmF3oWmSYIW-193" value="" style="curved=1;startArrow=none;endArrow=none;exitX=0.0018428383073257526;exitY=0.5468375007957041;entryX=0.748350654142531;entryY=-0.0013604196561437076;rounded=0;" edge="1" parent="1" source="17btKouk7AmF3oWmSYIW-1" target="17btKouk7AmF3oWmSYIW-17">
          <mxGeometry relative="1" as="geometry">
            <Array as="points">
              <mxPoint x="1161" y="237" />
              <mxPoint x="1161" y="613" />
            </Array>
          </mxGeometry>
        </mxCell>
        <mxCell id="17btKouk7AmF3oWmSYIW-194" value="" style="curved=1;startArrow=none;endArrow=none;exitX=0.9725773836653222;exitY=0.9989583492279053;entryX=0.9985422612875188;entryY=0.38462903221730826;rounded=0;" edge="1" parent="1" source="17btKouk7AmF3oWmSYIW-1" target="17btKouk7AmF3oWmSYIW-33">
          <mxGeometry relative="1" as="geometry">
            <Array as="points">
              <mxPoint x="2542" y="237" />
              <mxPoint x="2542" y="1186" />
            </Array>
          </mxGeometry>
        </mxCell>
        <mxCell id="17btKouk7AmF3oWmSYIW-195" value="" style="curved=1;startArrow=none;endArrow=none;exitX=1.0003376506386004;exitY=0.7780020762144648;entryX=1.001504905109476;entryY=0.3643834748347406;rounded=0;" edge="1" parent="1" source="17btKouk7AmF3oWmSYIW-1" target="17btKouk7AmF3oWmSYIW-50">
          <mxGeometry relative="1" as="geometry">
            <Array as="points">
              <mxPoint x="2644" y="237" />
              <mxPoint x="2644" y="1186" />
            </Array>
          </mxGeometry>
        </mxCell>
        <mxCell id="17btKouk7AmF3oWmSYIW-196" value="" style="curved=1;startArrow=none;endArrow=none;exitX=0.23124682740640254;exitY=0.9989583889643351;entryX=-0.0006239015052760888;entryY=0.1252983061325239;rounded=0;" edge="1" parent="1" source="17btKouk7AmF3oWmSYIW-9" target="17btKouk7AmF3oWmSYIW-17">
          <mxGeometry relative="1" as="geometry">
            <Array as="points">
              <mxPoint x="765" y="613" />
            </Array>
          </mxGeometry>
        </mxCell>
        <mxCell id="17btKouk7AmF3oWmSYIW-197" value="" style="curved=1;startArrow=none;endArrow=none;exitX=-0.0006239015052760888;exitY=0.7834282610420222;entryX=-0.0012007296924859705;entryY=0.3799535912052784;rounded=0;" edge="1" parent="1" source="17btKouk7AmF3oWmSYIW-17" target="17btKouk7AmF3oWmSYIW-23">
          <mxGeometry relative="1" as="geometry">
            <Array as="points">
              <mxPoint x="676" y="900" />
            </Array>
          </mxGeometry>
        </mxCell>
        <mxCell id="17btKouk7AmF3oWmSYIW-198" value="" style="curved=1;startArrow=none;endArrow=none;exitX=0.21177518509192114;exitY=0.9986395803438562;entryX=-0.0015436283911216709;entryY=0.3692100544134682;rounded=0;" edge="1" parent="1" source="17btKouk7AmF3oWmSYIW-17" target="17btKouk7AmF3oWmSYIW-33">
          <mxGeometry relative="1" as="geometry">
            <Array as="points">
              <mxPoint x="930" y="900" />
              <mxPoint x="930" y="1186" />
            </Array>
          </mxGeometry>
        </mxCell>
        <mxCell id="17btKouk7AmF3oWmSYIW-199" value="" style="curved=1;startArrow=none;endArrow=none;exitX=0.8593575405258717;exitY=0.9986395803438562;entryX=0.0018285660516648065;entryY=0.35719084648370036;rounded=0;" edge="1" parent="1" source="17btKouk7AmF3oWmSYIW-17" target="17btKouk7AmF3oWmSYIW-41">
          <mxGeometry relative="1" as="geometry">
            <Array as="points">
              <mxPoint x="1209" y="900" />
            </Array>
          </mxGeometry>
        </mxCell>
        <mxCell id="17btKouk7AmF3oWmSYIW-200" value="" style="curved=1;startArrow=none;endArrow=none;exitX=0.49831512612356266;exitY=0.9966245884633769;entryX=-0.0015436283911216709;entryY=0.14469736092872765;rounded=0;" edge="1" parent="1" source="17btKouk7AmF3oWmSYIW-23" target="17btKouk7AmF3oWmSYIW-33">
          <mxGeometry relative="1" as="geometry">
            <Array as="points">
              <mxPoint x="1406" y="1186" />
            </Array>
          </mxGeometry>
        </mxCell>
        <mxCell id="17btKouk7AmF3oWmSYIW-201" value="" style="curved=1;startArrow=none;endArrow=none;exitX=0.5015309470040458;exitY=1.0000001069541289;entryX=0.0016433040154376153;entryY=0.2492008506828049;rounded=0;" edge="1" parent="1" source="17btKouk7AmF3oWmSYIW-41" target="17btKouk7AmF3oWmSYIW-50">
          <mxGeometry relative="1" as="geometry">
            <Array as="points">
              <mxPoint x="1702" y="1186" />
            </Array>
          </mxGeometry>
        </mxCell>
        <mxCell id="17btKouk7AmF3oWmSYIW-202" value="" style="curved=1;startArrow=none;endArrow=none;exitX=0.5015741045624568;exitY=1.0018692729629088;entryX=0.002030016463822012;entryY=0.002083460489908854;rounded=0;" edge="1" parent="1" source="17btKouk7AmF3oWmSYIW-50" target="17btKouk7AmF3oWmSYIW-59">
          <mxGeometry relative="1" as="geometry">
            <Array as="points">
              <mxPoint x="2034" y="1450" />
            </Array>
          </mxGeometry>
        </mxCell>
        <mxCell id="17btKouk7AmF3oWmSYIW-203" value="" style="curved=1;startArrow=none;endArrow=none;exitX=0.5214268808283817;exitY=0.9989583889643351;entryX=0.701043221043558;entryY=0.0019609787884880513;rounded=0;" edge="1" parent="1" source="17btKouk7AmF3oWmSYIW-9" target="17btKouk7AmF3oWmSYIW-84">
          <mxGeometry relative="1" as="geometry">
            <Array as="points">
              <mxPoint x="905" y="613" />
            </Array>
          </mxGeometry>
        </mxCell>
        <mxCell id="17btKouk7AmF3oWmSYIW-204" value="" style="curved=1;startArrow=none;endArrow=none;exitX=1.0003376506386004;exitY=0.6839155847121988;entryX=0.5017710622151693;entryY=-0.003199920654296875;rounded=0;" edge="1" parent="1" source="17btKouk7AmF3oWmSYIW-1" target="17btKouk7AmF3oWmSYIW-88">
          <mxGeometry relative="1" as="geometry">
            <Array as="points">
              <mxPoint x="2754" y="237" />
            </Array>
          </mxGeometry>
        </mxCell>
        <mxCell id="17btKouk7AmF3oWmSYIW-205" value="" style="curved=1;startArrow=none;endArrow=none;exitX=0.0012266569048444802;exitY=0.9006658358865306;entryX=0.5000350658710186;entryY=0.0019609787884880513;rounded=0;" edge="1" parent="1" source="17btKouk7AmF3oWmSYIW-71" target="17btKouk7AmF3oWmSYIW-67">
          <mxGeometry relative="1" as="geometry">
            <Array as="points">
              <mxPoint x="109" y="613" />
            </Array>
          </mxGeometry>
        </mxCell>
        <mxCell id="17btKouk7AmF3oWmSYIW-206" value="" style="curved=1;startArrow=none;endArrow=none;exitX=0.4505338193598934;exitY=1.0000000356513763;entryX=0.4990803745814732;entryY=0.002083420753479004;rounded=0;" edge="1" parent="1" source="17btKouk7AmF3oWmSYIW-71" target="17btKouk7AmF3oWmSYIW-93">
          <mxGeometry relative="1" as="geometry">
            <Array as="points">
              <mxPoint x="324" y="613" />
            </Array>
          </mxGeometry>
        </mxCell>
        <mxCell id="17btKouk7AmF3oWmSYIW-207" value="" style="curved=1;startArrow=none;endArrow=none;exitX=0.9996276213743976;exitY=0.9722735208286699;entryX=0.022480920396862353;entryY=0.0019609787884880513;rounded=0;" edge="1" parent="1" source="17btKouk7AmF3oWmSYIW-71" target="17btKouk7AmF3oWmSYIW-84">
          <mxGeometry relative="1" as="geometry">
            <Array as="points">
              <mxPoint x="542" y="613" />
            </Array>
          </mxGeometry>
        </mxCell>
        <mxCell id="17btKouk7AmF3oWmSYIW-208" value="" style="curved=1;startArrow=none;endArrow=none;exitX=0.9996276213743976;exitY=0.804063677981077;entryX=0.7326817247393843;entryY=0.0019609787884880513;rounded=0;" edge="1" parent="1" source="17btKouk7AmF3oWmSYIW-71" target="17btKouk7AmF3oWmSYIW-80">
          <mxGeometry relative="1" as="geometry">
            <Array as="points">
              <mxPoint x="651" y="613" />
            </Array>
          </mxGeometry>
        </mxCell>
        <mxCell id="17btKouk7AmF3oWmSYIW-209" value="" style="curved=1;startArrow=none;endArrow=none;exitX=0.498735549132948;exitY=0.9936000061035156;entryX=0.5017578125;entryY=0.0007117872136343416;rounded=0;" edge="1" parent="1" source="17btKouk7AmF3oWmSYIW-127" target="17btKouk7AmF3oWmSYIW-101">
          <mxGeometry relative="1" as="geometry">
            <Array as="points" />
          </mxGeometry>
        </mxCell>
        <mxCell id="17btKouk7AmF3oWmSYIW-210" value="" style="curved=1;startArrow=none;endArrow=none;exitX=0.4983173347789155;exitY=1.0035502868291188;entryX=-0.0012376624417592243;entryY=0.45675544446085475;rounded=0;" edge="1" parent="1" source="17btKouk7AmF3oWmSYIW-132" target="17btKouk7AmF3oWmSYIW-113">
          <mxGeometry relative="1" as="geometry">
            <Array as="points">
              <mxPoint x="632" y="237" />
            </Array>
          </mxGeometry>
        </mxCell>
        <mxCell id="17btKouk7AmF3oWmSYIW-211" value="" style="curved=1;startArrow=none;endArrow=none;exitX=0.4963053535012638;exitY=0.9975000381469726;entryX=0.99995776256883;entryY=0.45564302265476;rounded=0;" edge="1" parent="1" source="17btKouk7AmF3oWmSYIW-139" target="17btKouk7AmF3oWmSYIW-113">
          <mxGeometry relative="1" as="geometry">
            <Array as="points">
              <mxPoint x="2837" y="237" />
            </Array>
          </mxGeometry>
        </mxCell>
        <mxCell id="17btKouk7AmF3oWmSYIW-212" value="" style="curved=1;startArrow=none;endArrow=none;exitX=0.0008400917053222656;exitY=0.5806690478754957;entryX=0.9975661713613104;entryY=0.35397570009362517;rounded=0;" edge="1" parent="1" source="17btKouk7AmF3oWmSYIW-142" target="17btKouk7AmF3oWmSYIW-17">
          <mxGeometry relative="1" as="geometry">
            <Array as="points">
              <mxPoint x="1796" y="613" />
            </Array>
          </mxGeometry>
        </mxCell>
        <mxCell id="17btKouk7AmF3oWmSYIW-213" value="" style="curved=1;startArrow=none;endArrow=none;exitX=0.0005381122325201455;exitY=0.7285049352246719;entryX=0.0016433040154376153;entryY=0.3975468482312831;rounded=0;" edge="1" parent="1" source="17btKouk7AmF3oWmSYIW-151" target="17btKouk7AmF3oWmSYIW-50">
          <mxGeometry relative="1" as="geometry">
            <Array as="points">
              <mxPoint x="1229" y="900" />
              <mxPoint x="1229" y="1186" />
            </Array>
          </mxGeometry>
        </mxCell>
        <mxCell id="17btKouk7AmF3oWmSYIW-214" value="" style="curved=1;startArrow=none;endArrow=none;exitX=0.36554466789082674;exitY=1.0000000902886927;entryX=0.888164748209657;entryY=0.002083460489908854;rounded=0;" edge="1" parent="1" source="17btKouk7AmF3oWmSYIW-161" target="17btKouk7AmF3oWmSYIW-33">
          <mxGeometry relative="1" as="geometry">
            <Array as="points">
              <mxPoint x="1842" y="900" />
              <mxPoint x="1842" y="1186" />
            </Array>
          </mxGeometry>
        </mxCell>
        <mxCell id="17btKouk7AmF3oWmSYIW-215" value="" style="curved=1;startArrow=none;endArrow=none;exitX=0.6795067087998973;exitY=1.0000000356513763;entryX=1.0012333279564267;entryY=0.4097188224202843;rounded=0;" edge="1" parent="1" source="17btKouk7AmF3oWmSYIW-142" target="17btKouk7AmF3oWmSYIW-41">
          <mxGeometry relative="1" as="geometry">
            <Array as="points">
              <mxPoint x="2485" y="613" />
              <mxPoint x="2485" y="900" />
            </Array>
          </mxGeometry>
        </mxCell>
        <mxCell id="17btKouk7AmF3oWmSYIW-216" value="" style="curved=1;startArrow=none;endArrow=none;exitX=1.0031324902420524;exitY=0.6820338750606588;entryX=0.5015309470040458;entryY=-0.000934458224572868;rounded=0;" edge="1" parent="1" source="17btKouk7AmF3oWmSYIW-151" target="17btKouk7AmF3oWmSYIW-41">
          <mxGeometry relative="1" as="geometry">
            <Array as="points">
              <mxPoint x="1702" y="900" />
            </Array>
          </mxGeometry>
        </mxCell>
        <mxCell id="17btKouk7AmF3oWmSYIW-217" value="" style="curved=1;startArrow=none;endArrow=none;exitX=0.0019608036164314516;exitY=0.9958657828299541;entryX=1.001504905109476;entryY=0.14224228273910017;rounded=0;" edge="1" parent="1" source="17btKouk7AmF3oWmSYIW-175" target="17btKouk7AmF3oWmSYIW-50">
          <mxGeometry relative="1" as="geometry">
            <Array as="points">
              <mxPoint x="2267" y="900" />
              <mxPoint x="2267" y="1186" />
            </Array>
          </mxGeometry>
        </mxCell>
        <mxCell id="17btKouk7AmF3oWmSYIW-218" value="" style="curved=1;startArrow=none;endArrow=none;exitX=0.726742818548639;exitY=1.0018692373115325;entryX=0.9978309819396113;entryY=0.41277928853378876;rounded=0;" edge="1" parent="1" source="17btKouk7AmF3oWmSYIW-175" target="17btKouk7AmF3oWmSYIW-23">
          <mxGeometry relative="1" as="geometry">
            <Array as="points">
              <mxPoint x="2418" y="900" />
            </Array>
          </mxGeometry>
        </mxCell>
        <mxCell id="17btKouk7AmF3oWmSYIW-219" value="" style="curved=1;startArrow=none;endArrow=none;exitX=0.8406413659306711;exitY=1.0000000902886927;entryX=1.0012333279564267;entryY=0.2670882698540326;rounded=0;" edge="1" parent="1" source="17btKouk7AmF3oWmSYIW-161" target="17btKouk7AmF3oWmSYIW-41">
          <mxGeometry relative="1" as="geometry">
            <Array as="points">
              <mxPoint x="2005" y="900" />
            </Array>
          </mxGeometry>
        </mxCell>
        <mxCell id="17btKouk7AmF3oWmSYIW-220" value="" style="curved=1;startArrow=none;endArrow=none;exitX=0.4990803745814732;exitY=1.0010417699813843;entryX=0.0018285660516648065;entryY=0.44853877986505986;rounded=0;" edge="1" parent="1" source="17btKouk7AmF3oWmSYIW-93" target="17btKouk7AmF3oWmSYIW-41">
          <mxGeometry relative="1" as="geometry">
            <Array as="points">
              <mxPoint x="324" y="900" />
            </Array>
          </mxGeometry>
        </mxCell>
        <mxCell id="17btKouk7AmF3oWmSYIW-221" value="" style="curved=1;startArrow=none;endArrow=none;exitX=0.49783458524537316;exitY=1.0000000902886927;entryX=1.0012333279564267;entryY=0.3395516995328274;rounded=0;" edge="1" parent="1" source="17btKouk7AmF3oWmSYIW-168" target="17btKouk7AmF3oWmSYIW-41">
          <mxGeometry relative="1" as="geometry">
            <Array as="points">
              <mxPoint x="2142" y="900" />
            </Array>
          </mxGeometry>
        </mxCell>
        <mxCell id="17btKouk7AmF3oWmSYIW-222" value="" style="curved=1;startArrow=none;endArrow=none;exitX=0.5043551938753601;exitY=1.0010418097178142;entryX=0.9981693201678032;entryY=0.002083460489908854;rounded=0;" edge="1" parent="1" source="17btKouk7AmF3oWmSYIW-184" target="17btKouk7AmF3oWmSYIW-59">
          <mxGeometry relative="1" as="geometry">
            <Array as="points">
              <mxPoint x="2290" y="1450" />
            </Array>
          </mxGeometry>
        </mxCell>
      </root>
    </mxGraphModel>
  </diagram>
</mxfile>
